<?xml version="1.0" encoding="UTF-8" standalone="no"?>
<svg
   width="19275.277mm"
   height="14404.861mm"
   version="1.2"
   viewBox="0 0 227660.76 170136.42"
   id="svg178"
   xmlns="http://www.w3.org/2000/svg"
   xmlns:svg="http://www.w3.org/2000/svg"
   xmlns:rdf="http://www.w3.org/1999/02/22-rdf-syntax-ns#"
   xmlns:cc="http://creativecommons.org/ns#"
   xmlns:dc="http://purl.org/dc/elements/1.1/">
  <defs
     id="defs1" />
  <metadata
     id="metadata178">
    <rdf:RDF>
      <rdf:Description
         dc:identifier=""
         dc:date="2026-03-13T19:46:42"
         dc:format="image/svg+xml"
         dc:description=""
         dc:title="">
        <dc:creator>
          <rdf:Bag>
            <rdf:li>John G Yang</rdf:li>
          </rdf:Bag>
        </dc:creator>
        <dc:publisher>
          <rdf:Bag>
            <rdf:li>QGIS 3.44.7-Solothurn</rdf:li>
          </rdf:Bag>
        </dc:publisher>
        <dc:subject>
          <rdf:Bag />
        </dc:subject>
      </rdf:Description>
      <cc:Work
         rdf:about="">
        <dc:format>image/svg+xml</dc:format>
        <dc:title />
        <dc:date>2026-03-13T19:46:42</dc:date>
        <dc:identifier />
        <dc:description />
        <dc:creator>
          <cc:Agent>
            <dc:title>John G Yang</dc:title>
          </cc:Agent>
        </dc:creator>
        <dc:publisher>
          <cc:Agent>
            <dc:title>QGIS 3.44.7-Solothurn</dc:title>
          </cc:Agent>
        </dc:publisher>
      </cc:Work>
    </rdf:RDF>
  </metadata>
  <g
     id="layer3"
     transform="translate(-84377.103,15474.866)">
    <g
       stroke-width="1"
       stroke-linecap="square"
       stroke-linejoin="bevel"
       fill="none"
       fill-rule="evenodd"
       stroke="#000000"
       id="g475"
       style="display:inline;stroke:#000000;stroke-width:295.276;stroke-dasharray:none;stroke-dashoffset:0.2;stroke-opacity:1">
      <path
         fill-rule="evenodd"
         d="m 140178.53,103906 v 26104.91 2152.62 10092.05 14129.32 88809.88 h 171564.4 v -90828.5 h -36330.99 v -30276.17 h -34313.42 l -10092.04,-4373.34 -6054.75,10429.23 -8073.47,8073.43 H 190638.59 V 119044.64 H 190165 l -7195.53,-20212.667 -2422.83,1037.857 H 150270.56 L 140178.53,103906"
         vector-effect="none"
         id="path397"
         style="font-style:normal;font-weight:400;font-size:33.3333px;font-family:'MS Shell Dlg 2';display:none;fill:#d0e0e3;fill-opacity:1;stroke:#000000;stroke-width:295.276;stroke-linecap:square;stroke-linejoin:bevel;stroke-dasharray:none;stroke-dashoffset:0.199999;stroke-opacity:1" />
      <path
         fill-rule="evenodd"
         d="m 163390.12,-12046.099 -6055.21,2417.1896 -1210.92,840.9564 -201.89,1513.8596 -33.58,100.927 874.52,571.8855 -168.12,269.0704 302.8,269.0703 -168.28,168.2573 235.47,605.4823 -134.53,841.0584 235.47,168.1433 -134.53,672.8126 403.59,437.339 v 100.927 l -168.12,67.3189 369.99,504.5553 740.14,403.7194 -370.16,235.4736 -100.76,201.8654 v 168.1433 l 100.76,134.5352 -67.19,67.3188 -369.98,-67.3188 -1782.95,-100.927 -1042.8,134.6491 -201.86,100.8244 -67.35,168.2459 605.47,336.41198 h 8410.02 v -11331.79418 0"
         vector-effect="none"
         id="path387"
         style="font-style:normal;font-weight:400;font-size:33.3333px;font-family:'MS Shell Dlg 2';fill:#e77148;fill-opacity:1;stroke:#000000;stroke-width:295.276;stroke-linecap:square;stroke-linejoin:bevel;stroke-dasharray:none;stroke-dashoffset:0.2;stroke-opacity:1" />
      <path
         fill-rule="evenodd"
         d="m 163390.12,-8451.5524 v 5382.4321 2354.81548 6728.03442 h 3027.62 4036.87 V -6702.2193 -8451.5524 h -7064.49"
         vector-effect="none"
         id="path388"
         style="font-style:normal;font-weight:400;font-size:33.3333px;font-family:'MS Shell Dlg 2';fill:#ff9e17;fill-opacity:1;stroke:#000000;stroke-width:295.276;stroke-linecap:square;stroke-linejoin:bevel;stroke-dasharray:none;stroke-dashoffset:0.2;stroke-opacity:1" />
      <path
         fill-rule="evenodd"
         d="m 163390.12,-12046.099 -6055.21,2417.1896 -1210.92,840.9564 -201.89,1513.7457 -33.58,101.0409 874.52,571.8855 -168.12,269.0704 302.8,269.0703 -168.28,168.2573 235.47,605.4823 -134.53,841.0584 235.47,168.1433 -134.53,672.8126 403.59,437.339 v 100.927 l -168.12,67.3189 369.99,504.5553 740.14,403.7194 -370.16,235.4736 -100.76,201.8654 v 168.1433 l 100.76,134.5352 -67.19,67.3188 -369.98,-67.3188 -1782.95,-100.927 -1042.8,134.6491 -201.86,100.8244 -67.35,168.2459 605.47,336.41198 -12110.36,6391.63392 v 2691.2046 l 17465.81,10944.7533 26.89,148.058 2354.8,1449.275 33.76,745.736 941.86,370.009 67.33,370.009 538.13,285.988 336.39,16.804 168.28,-134.535 521.36,521.348 891.44,151.453 201.95,85.114 V 6013.7296 h -3027.62 V -12046.099"
         vector-effect="none"
         id="path389"
         style="font-style:normal;font-weight:400;font-size:33.3333px;font-family:'MS Shell Dlg 2';fill:#8d5a99;fill-opacity:1;stroke:#000000;stroke-width:295.276;stroke-linecap:square;stroke-linejoin:bevel;stroke-dasharray:none;stroke-dashoffset:0.2;stroke-opacity:1" />
      <path
         fill-rule="evenodd"
         d="m 176187.84,46970.843 418.82,51.836 349.2,-69.079 314.08,-172.759 314.08,-397.137 139.48,-534.971 87.22,-431.184 17.15,-396.364 -191.97,-499.498 -401.31,-430.305 -453.79,-240.741 -663.28,-120.373 -697.93,-68.859 h 436.19 l 558.52,-154.749 366.5,-429.647 34.89,-583.842 -122.11,-566.162 -226.94,-360.013 -401.38,-325.527 -471.16,-85.669 -418.9,-17.131 -122.11,-171.221 -87.3,-376.49 34.89,-427.67 69.85,-478.516 349.06,-461.058 579.55,-501.472 -244.37,-83.358 -369.7,-283.794 -251.61,-343.876 -90.04,-396.473 107.18,-449.848 -7.77,-64.915 -800.72,225.698 -454.77,-629.418 -505.06,-607.681 -404.65,-155.076 -131.17,45.912 -1384.62,-465.889 -391.24,183.41 -747.39,68.64 -710.67,65.132 -257.63,46.345 -654.82,563.307 -21.56,794.485 -368.23,539.474 -598.77,500.268 18.36,1532.865 -174.75,284.341 -129.95,672.257 392.69,319.377 67.72,-1.539 4608.37,4482.942 3693.87,1406.013"
         vector-effect="none"
         id="path390"
         style="font-style:normal;font-weight:400;font-size:33.3333px;font-family:'MS Shell Dlg 2';fill:#729b6f;fill-opacity:1;stroke:#000000;stroke-width:295.276;stroke-linecap:square;stroke-linejoin:bevel;stroke-dasharray:none;stroke-dashoffset:0.2;stroke-opacity:1" />
      <path
         fill-rule="evenodd"
         d="m 165973.54,45240.399 -16.61,317.51 -77.84,303.893 49.28,395.161 -151.15,494.005 135.22,221.081 -135.51,671.486 84.33,167.707 6.08,448.206 143.15,171.441 v 129.488 l -103.61,5.384 40.15,607.567 32.07,151.122 -67.5,50.517 -33.67,336.29 85.79,337.94 -136.29,518.609 86.15,1476.413 7735.09,5437.889 3949.74,-3430.134 -30.46,-99.069 50.66,-126.189 33.74,-14.603 37.86,32.283 96.68,-60.956 -11.21,-44.366 -47.84,-25.039 41.97,-84.018 56.16,-16.911 v -64.476 l 93.46,-95.33 -32,-8.241 133.24,-206.138 59.19,-30.973 89.66,-148.378 38.33,-527.282 124.08,-268.967 -173,-242.61 117.01,-145.41 -74.72,-83.91 635.77,-564.399 67.03,-106.535 161.96,-64.583 143.37,-230.967 23.68,-115.648 166.53,78.748 69.32,-267.87 133.62,23.615 101.71,-84.022 33.29,-106.096 216.25,30.319 152.9,-571.547 -1775.94,-2001.052 -5830.71,-2252.894 -4615.84,-4467.013 -21.57,180.666 85.78,64.248 29.63,161.555 -45.4,148.706 214.36,397.908 -144.36,490.819 -245.29,-128.171 -167.43,389.009 191.88,226.685 -154.17,329.814 -105.21,261.829 -354.75,57.218 -99.04,137.285 49.6,210.1 -132.63,14.607 -303.58,439.203 46.55,270.064 -70.09,219.544 -69.39,217.68 -308.27,57.55 -307.39,2.635"
         vector-effect="none"
         id="path391"
         style="font-style:normal;font-weight:400;font-size:33.3333px;font-family:'MS Shell Dlg 2';fill:#a47158;fill-opacity:1;stroke:#000000;stroke-width:295.276;stroke-linecap:square;stroke-linejoin:bevel;stroke-dasharray:none;stroke-dashoffset:0.2;stroke-opacity:1" />
      <path
         fill-rule="evenodd"
         d="m 154811.98,43623.297 -39.92,-49.423 35.5,-146.837 -18.14,-37.562 -70.45,-151.892 10.65,-73.366 v -41.515 -14.056 l -3.03,-24.714 0.7,-11.202 -3.05,-39.207 -12.18,-21.855 -7.93,-33.716 84.1,-84.02 19.13,-65.127 -4.58,-9.449 -34.65,-7.357 -81.44,-59.417 -32.54,-9.448 -19.65,-9.118 -13.93,-27.457 8.45,-19.548 10.06,-32.072 v -13.397 l 11.8,-44.262 27.51,-29.212 58.27,-11.753 39.76,-30.313 -1.52,-12.849 -58.8,-5.599 -48.83,-8.896 -27.43,-28.117 -14.1,-14.06 -52.71,-72.814 -62.78,-146.29 -67.79,-141.9 53.86,-128.938 -1.53,-26.356 -21.32,-7.36 -19.59,-8.349 -146.24,-588.676 h 13640.98 l -85.76,-64.139 23,-189.892 -67.8,1.538 -392.55,-319.487 130.73,-672.804 173.75,-283.025 -18.43,-1533.301 598.22,-500.702 368.85,-539.257 22.48,-794.383 653.22,-562.315 259.54,-47.451 1455.45,-133.988 393.15,-182.965 1382.48,465.558 132.85,-45.467 403.67,154.187 504.69,605.482 456.3,632.494 1131.68,-319.38 640.67,-384.83 622.21,83.576 566.99,425.479 356.44,100.927 481.07,302.793 1715.73,151.35 688.2,-722.997 418.22,-204.611 521.13,-28.891 340.35,-119.93 794.48,-82.483 954.81,57.225 V 16601.871 l -3061.28,1791.395 -5281.4,3162.152 -3128.55,2750.093 -639.21,109.278 -4373.22,874.666 -437.33,-403.731 269.21,-437.225 -67.34,-941.985 -639.21,-269.082 -891.42,-151.453 -521.36,-521.348 -168.28,134.535 -336.4,-16.804 -538.2,-285.988 -67.27,-370.009 -941.93,-370.009 -33.69,-745.736 -2354.79,-1449.275 -26.97,-148.058 -7204.96,-4550.591 -33.61,15776.069 -942.01,3700.099 -437.34,3330.078 -1042.78,1749.115 -908.43,1009.097 -572.41,2286.937 -167.58,673.135 5785.47,336.071"
         vector-effect="none"
         id="path392"
         style="font-style:normal;font-weight:400;font-size:33.3333px;font-family:'MS Shell Dlg 2';fill:#7d8b8f;fill-opacity:1;stroke:#000000;stroke-width:295.276;stroke-linecap:square;stroke-linejoin:bevel;stroke-dasharray:none;stroke-dashoffset:0.2;stroke-opacity:1" />
      <path
         fill-rule="evenodd"
         d="m 190638.59,135191.49 v 3027.94 h 4521.31 4541.34 4521.6 l 120.83,-1191.64 120.81,-1210.29 101.01,-1211.41 120.82,-1211.4 101.01,-1210.3 121.97,-1211.39 99.93,-1190.53 3310.16,-2987.3 -5025.68,-1655.12 -1816.53,-19.76 h -3007.11 -3027.61 -3007.42 l -1796.44,-20.87 v 3370.61 3350.85 3370.61"
         vector-effect="none"
         id="path393"
         style="font-style:normal;font-weight:400;font-size:33.3333px;font-family:'MS Shell Dlg 2';fill:#ead1dc;fill-opacity:1;stroke:#000000;stroke-width:295.276;stroke-linecap:square;stroke-linejoin:bevel;stroke-dasharray:none;stroke-dashoffset:0;stroke-opacity:1" />
      <path
         fill-rule="evenodd"
         d="m 217367.01,116309.94 3680.61,403.11 1483.49,162.48 14.24,813.82 752.33,985.16 1607.88,-26.36 13.18,-174.61 13.18,-190.02 24.16,-341.55 20.87,-287.75 24.14,-9.9 24.22,3.28 17.52,14.28 15.39,3.26 17.59,-4.4 14.24,-8.79 29.66,-6.56 6.85,-1.06 22.02,-4.42 72.43,7.69 v -585.39 l -102.08,-203.16 v -218.57 l 84.56,-285.55 -50.58,-302.03 -202.02,-68.09 -135.14,-302.04 68.1,-269.06 99.95,-151.57 -31.85,-218.56 h -69.16 l 34.05,-168.03 102.15,-136.2 32.91,-467.85 -99.95,-978.56 -0.7,-487.65 -32.92,-216.35 -169.2,-237.24 -32.9,-470.05 -236.15,-133.99 -133.99,-303.12 -17.6,-235.04 -251.47,-269.08 -50.5,-135.09 50.5,-471.15 -504.14,-1548.58 -114.19,-95.54 H 223317 l -60.4,-81.27 -202.11,60.4 -463.46,-99.94 -464.54,60.42 -645.75,39.52 -101.1,-140.57 -202.09,40.63 -443.66,-242.72 -544.75,-101.03 -585.43,120.8 -303.11,-66.98 -101,101.03 h -226.25 -8.76 l -1596.92,7929.55"
         vector-effect="none"
         id="path394"
         style="font-style:normal;font-weight:400;font-size:33.3333px;font-family:'MS Shell Dlg 2';fill:#d9d2e9;fill-opacity:1;stroke:#000000;stroke-width:295.276;stroke-linecap:square;stroke-linejoin:bevel;stroke-dasharray:none;stroke-dashoffset:0;stroke-opacity:1" />
      <path
         fill-rule="evenodd"
         d="m 212021.7,118249.48 -1661.67,1327.82 5529.82,1366.26 1477.16,-4633.62 -5355.22,-1031.29 -12.03,-2.14 21.94,2973.04"
         vector-effect="none"
         id="path395"
         style="font-style:normal;font-weight:400;font-size:33.3333px;font-family:'MS Shell Dlg 2';fill:#fce5cd;fill-opacity:1;stroke:#000000;stroke-width:295.276;stroke-linecap:square;stroke-linejoin:bevel;stroke-dasharray:none;stroke-dashoffset:0;stroke-opacity:1" />
      <path
         fill-rule="evenodd"
         d="m 194675.41,119044.64 h -4036.82 v 6054.78 l 1796.44,20.87 h 3007.42 3027.61 3007.11 l 1816.53,19.76 8729.07,-6890.57 -21.94,-2930.2 -0.71,-42.83 -504.08,269.08 h -404.19 l -134,-101.05 -101.01,-32.94 -235.09,200.97 -572.17,34.06 -336.09,-168.04 -169.12,67 -336.1,-302.02 -538.11,32.94 -437.12,-370.13 -370.14,-302.01 -605.16,-68.11 -471.16,68.11 -167.97,235.03 -169.19,404.17 -200.97,807.21 -404.18,403.07 h -202.03 l -168.05,202.09 -202.09,34.04 -101.03,168.03 -302.04,403.09 -202.1,101.04 -269.05,-32.95 -101.09,101.03 34.05,168.03 -168.04,134 -572.18,-66.99 -505.21,101.05 -338.23,-67.01 2.29,1345.4 h -4036.2 -4037.35"
         vector-effect="none"
         id="path396"
         style="font-style:normal;font-weight:400;font-size:33.3333px;font-family:'MS Shell Dlg 2';fill:#d9ead3;fill-opacity:1;stroke:#000000;stroke-width:295.276;stroke-linecap:square;stroke-linejoin:bevel;stroke-dasharray:none;stroke-dashoffset:0;stroke-opacity:1" />
      <path
         fill-rule="evenodd"
         d="m 202746.76,100510.13 2.26,7433.13 h -2018.62 v 5551.78 l 236.15,233.94 437.11,269.07 639.22,942.34 66.94,403.05 269.07,404.16 101.09,572.2 -538.2,639.21 202.09,807.24 403.07,-135.1 202.08,68.09 336.11,67.01 505.2,-101.05 572.19,66.99 168.05,-134 -34.07,-168.03 101.02,-101.03 269.14,32.95 202.11,-101.04 301.96,-403.09 101.08,-168.03 202.04,-34.04 168.04,-202.09 h 202.09 l 404.12,-403.07 201.03,-807.21 169.13,-404.17 168.05,-235.03 471.15,-68.11 605.15,68.11 370.16,302.01 437.11,370.13 538.11,-32.94 336.09,302.02 169.12,-67 336.1,168.04 572.17,-34.06 235.02,-200.97 101.08,32.94 133.99,101.05 h 404.13 l 504.15,-269.08 572.15,-1412.38 34.07,-34.06 v -168.02 l -68.11,-168.06 h 101.09 l 68.12,-66.98 h 133.9 l 841.31,-151.58 133.99,-151.54 236.16,-336.08 134,-34.05 34.05,-101.03 101.01,-67 h 101.01 l 133.99,-66.99 135.14,-539.26 167.98,-672.14 706.25,-538.16 h 370.06 l 168.05,-370.11 236.15,32.95 370.07,-336.09 67.04,-202.07 202.09,-168.04 v -101.05 l 235.01,-168.03 v -67 l 370.16,-303.12 h 336.01 l 807.27,-235.03 236.14,-471.16 h 235 l 101.02,-101.03 303.19,66.99 -193.34,-264.7 -356.9,-503 -173.52,-106.53 -83.5,16.48 -707.3,-285.56 h -101.03 l -67.03,67 -437.1,-133.99 -572.18,-67 -101.01,-236.13 -336.1,-538.16 -235.07,-235.03 32.97,-68.09 34.07,-168.03 -34.07,-67 50.51,-269.08 v -168.03 l -83.48,-202.09 67.04,-168.03 -67.04,-66.98 -639.14,-34.07 -168.04,34.07 v -438.22 l -169.13,-370.14 h -201.02 l -101.02,-133.98 h -168.04 l -505.21,-168.04 -32.92,-101.04 -202.09,-34.05 -68.11,-133.98 -67.03,-34.05 -202.02,-66.99 -99.95,-168.04 -68.11,32.96 -67.03,-32.96 67.03,-101.05 -67.03,-66.99 h -134 l -169.11,-68.09 -200.96,-571.1 -218.55,-353.65 66.95,-151.56 -117.44,-235.03 -236.17,-135.08 -67.04,-235.03 34.06,-67 -68.03,-169.13 h -101.09 l -370.14,-437.11 -269.07,-529.38 -168.03,-109.83 -101.03,-202.073 -66.95,-134.002 59.26,-210.853 -214.14,-23.08 -16.53,34.045 -160.35,83.481 -41.67,-67.005 -83.5,50.521 -93.38,-84.567 -125.17,75.782 -159.28,53.82 -311.88,190.009 -168.05,227.338 h -151.59 l -117.45,-193.292 -169.13,-34.046 -168.04,168.032 -134,-32.943 -572.25,403.043 -269.06,303.15 -370.15,285.54 -66.95,-50.53 -101.02,-386.58 -303.12,-252.6 -133.99,-336.085 h -437.11 l -3297.04,639.205 h -941.25"
         vector-effect="none"
         id="path398"
         style="font-style:normal;font-weight:400;font-size:33.3333px;font-family:'MS Shell Dlg 2';fill:#d0e0e3;fill-opacity:1;stroke:#000000;stroke-width:295.276;stroke-linecap:square;stroke-linejoin:bevel;stroke-dasharray:none;stroke-dashoffset:0.2;stroke-opacity:1" />
      <path
         fill-rule="evenodd"
         d="m 173650.35,57482.983 v 14465.281 l 4541.5,2690.89 6391.61,-840.181 v -101.043 l 336.4,-269.082 67.18,-236.123 168.28,66.99 369.99,-436.789 471.03,-235.464 134.52,-269.193 201.87,134.541 437.34,403.725 168.2,-67.321 605.46,605.589 740.14,-941.993 336.41,168.261 840.99,-336.403 v 1076.089 l 840.93,-66.997 1345.61,-1513.75 841.07,-235.472 672.81,-1513.75 -168.28,-1951.206 2085.74,-2522.954 1110.14,-1009.204 -67.34,-672.807 134.53,-672.793 302.58,-370.021 -83.49,-885.862 -118.61,-426.131 474.51,-1052.372 97.74,-1507.603 821.5,-1545.821 241.63,-318.943 -16.46,-562.975 -102.15,-590.317 131.79,-477.199 -2.28,-192.312 -212.01,-431.075 94.47,-95.877 153.72,12.842 235.09,-134.536 143.81,-346.503 489.91,-624.589 678.67,-473.247 403.13,-2.21 230.6,28.003 1237.8,779.893 395.36,673.351 851.13,-91.931 489.83,327.395 70.31,-99.173 606.22,173.745 190,-109.27 136.2,-1.065 373.43,135.641 236.14,6.705 553.51,234.923 315.22,-25.702 585.35,-1008.655 397.57,-385.164 880.84,428.876 1735.27,-714.321 423.91,-279.731 619.49,363.856 1177.32,-235.467 66.97,-605.59 404.19,-67.211 639.21,336.393 571.11,-100.921 505.2,336.395 h 1009.29 l 168.05,-235.474 h 336.09 l 606.22,370.018 -572.17,-807.347 101.01,-235.465 -133.99,-322.348 -908.27,-554.961 -640.28,-266.441 136.21,-204.498 -472.29,-502.019 270.2,-372.536 -606.24,-401.203 -99.94,-305.205 -1380.57,-737.602 -370.14,-403.616 270.19,-422.947 -640.26,-485.328 h -25734.6 l -50.5,134.539 -182.75,176.604 -162.11,348.152 25.22,265.782 -454.1,487.745 75.63,454.135 -253.36,26.361 -320.71,377.364 77.87,100.932 -87.93,323.987 -416.6,331.903 -67.35,-33.608 -89.58,-50.407 -64.45,39.207 -16.9,-25.26 -70.1,-25.149 -63.91,-38.776 -32.75,-32.942 -33.6,87.53 -68.94,-16.801 3.04,-273.583 -62.07,-70.29 -8.47,5.614 -54.6,-12.191 -77.63,71.062 -103.46,-1.019 -61.39,-43.819 -12.65,-127.179 -26.35,14.056 -34.12,-56.01 -100.72,-77.542 -22.4,-39.313 53.25,-168.146 -133.16,-68.205 -26.66,20.536 -57.44,-73.8 -36.42,2.77 -39.21,-47.669 -204.4,-130.8 13.72,-44.039 -11.21,-71.831 -58.88,-56.009 -15.7,246.672 -37.55,188.904 -29.63,43.714 -51.64,22.512 -30.87,30.75 -42.05,-29.108 -513.05,45.91 -82.65,-97.083 16.75,-50.525 -43.33,-143.871 -580.33,532.552 -186.18,-53.271 -153.11,571.873 -216.12,-30.422 -33.29,106.096 -101.48,84.132 -134.06,-23.615 -68.87,267.428 -166.6,-78.413 -25.22,117.729 -142.99,229.761 -159.74,62.824 -67.33,106.528 -636.41,565.063 74.44,84.129 -116.47,145.737 172.46,242.289 -124.79,267.867 -37.77,528.269 -89.74,148.592 -58.88,30.859 -133.16,206.154 31.9,8.347 -93.53,95.33 v 64.468 l -56.14,16.804 -42.05,84.132 47.68,25.253 11.2,44.258 -96.67,60.744 -37.87,-32.184 -33.67,14.062 -50.5,125.527 29.56,100.051 -78.54,67.22 -3868.68,3364.018"
         vector-effect="none"
         id="path399"
         style="font-style:normal;font-weight:400;font-size:33.3333px;font-family:'MS Shell Dlg 2';fill:#d9d2e9;fill-opacity:1;stroke:#000000;stroke-width:295.276;stroke-linecap:square;stroke-linejoin:bevel;stroke-dasharray:none;stroke-dashoffset:0.2;stroke-opacity:1" />
      <path
         fill-rule="evenodd"
         d="m 272384.03,83721.887 v 18165.483 l 3027.91,6728.04 v 45750.87 h 36330.99 V 75648.469 h -30276.15 v 8073.418 h -9082.75"
         vector-effect="none"
         id="path400"
         style="font-style:normal;font-weight:400;font-size:33.3333px;font-family:'MS Shell Dlg 2';fill:#ead1dc;fill-opacity:1;stroke:#000000;stroke-width:295.276;stroke-linecap:square;stroke-linejoin:bevel;stroke-dasharray:none;stroke-dashoffset:0.2;stroke-opacity:1" />
      <path
         fill-rule="evenodd"
         d="m 204766.53,89781.067 0.72,6455.667 202.02,235.028 101.09,336.079 1311.33,1312.434 875.27,807.237 269.14,34.054 134,168.024 1513.41,-300.923 373.43,-10.974 421.72,136.175 256.96,-87.857 566.75,135.087 231.74,248.206 328.4,207.588 142.76,79.065 99.93,32.951 h 101.02 l 135.15,16.475 403.04,-83.472 277.83,151.563 92.25,184.515 185.64,34.038 218.57,-34.038 64.74,-135.095 204.31,-32.952 572.16,151.563 310.82,177.912 563.49,-194.387 236.06,-34.037 201.04,-202.085 v -101.051 l 337.16,-403.051 430.48,-336.088 180.17,-215.262 58.19,-215.255 366.8,-520.578 555.71,-251.52 63.77,-28.543 396.42,-283.353 807.26,-269.075 168.04,-133.985 68.11,-875.321 133.93,-218.568 202.1,-16.484 202.1,-168.024 302.04,-202.085 976.38,-269.09 941.16,67.004 236.15,34.039 184.51,-101.043 -425,-1257.505 4613.86,-1500.255 1431.01,-497.522 -41.67,-48.333 -0.71,-47.223 -79.09,-47.231 -37.31,50.537 -46.18,2.124 -70.31,49.428 -15.38,77.978 -47.24,58.213 -102.07,-72.484 3.04,-74.696 25.22,-26.354 -9.91,-30.74 -30.69,-25.269 -75.8,-5.494 -9.91,-16.467 18.67,-50.514 -32.91,-61.511 -34.05,-13.176 -32.98,-31.858 -25.21,-68.083 -65.9,-46.13 -84.63,-24.174 -12.06,34.062 -45,-43.933 -29.64,3.347 20.8,-56.016 24.22,-5.487 35.12,-48.325 40.61,2.204 29.7,-24.159 -40.67,-48.325 -52.72,-39.532 -2.29,-30.755 -36.18,-30.755 -41.74,-3.274 -18.67,20.868 -92.32,-28.559 -66.96,-42.823 39.54,-93.36 113.1,29.654 32.93,-59.307 h 48.36 l 116.4,-76.884 -8.75,-108.725 h 83.48 l 74.67,-118.613 6.84,-97.752 56,-180.114 35.19,-7.691 31.85,-60.407 62.53,-26.356 -17.51,-64.785 -50.51,-52.725 -14.32,-85.669 103.22,-411.845 -140.54,-147.171 14.25,-177.919 88.96,-102.137 15.39,-90.068 144.96,-120.817 180.16,31.866 0.81,68.09 32.92,-14.288 14.24,-52.709 68.11,-38.437 58.28,-92.251 106.48,-57.118 90.05,85.661 239.43,-229.533 -15.4,-52.718 163.64,-112.032 -35.13,-69.185 -46.08,24.158 -71.37,-36.24 -43.96,-3.276 -71.38,38.431 -108.78,7.69 -16.46,-82.37 -38.39,-31.833 -22.02,-63.707 -30.77,-8.793 -9.82,-43.932 7.69,-136.191 -92.25,-26.346 -11.06,-61.511 42.89,-136.19 57.06,-107.623 4.57,-101.042 25.3,-59.307 -2.3,-48.317 -35.11,-60.416 58.21,-127.405 -39.54,-162.53 4.57,-239.428 -59.34,-53.819 -126.3,25.26 v -70.295 l 49.43,-56.009 -12.12,-148.273 -36.18,-53.804 28.57,-56.023 82.36,81.284 28.56,-32.951 -5.33,-54.913 -19.82,-28.551 16.47,-28.553 46.16,3.276 10.96,-18.681 -26.35,-50.52 51.64,-46.129 123.04,-211.957 27.42,-107.639 -23.08,-21.97 -30.7,6.637 -20.88,-83.473 -74.73,-75.782 -50.51,-138.37 12.12,-113.141 -61.56,-82.364 -57.05,12.084 -17.6,-31.849 48.3,-51.617 45.02,17.563 42.89,-12.076 45.02,-79.087 70.32,-3.275 49.36,-37.345 117.53,25.269 164.7,-125.2 -6.86,-43.925 41.76,-14.288 101.09,-152.665 40.6,9.887 162.56,-151.556 9.91,-31.857 -45.04,17.577 -31.92,-95.556 -43.86,-19.758 -25.3,-48.324 -19.74,6.548 -6.84,-15.365 20.87,-30.747 -26.36,-57.11 -75.8,-31.858 -68.1,-121.911 7.7,-40.642 -31.86,-39.54 53.79,-209.767 -93.32,-49.42 -43.95,-54.914 -73.59,-12.075 -74.65,-90.06 -161.49,-76.892 -47.24,-54.899 64.83,-240.531 66.96,-61.502 -29.63,-102.136 -46.1,-68.1 -124.08,-40.634 -29.71,-92.25 -85.63,-77.978 -3.05,-146.069 -24.14,-62.604 -45.03,-36.235 -79.15,28.543 -59.26,-29.652 -23.08,46.136 0.81,76.876 -29.63,64.794 -78.01,-125.202 -58.2,39.533 -51.64,-26.355 16.52,-173.526 36.18,-58.212 -12.03,-46.13 -99.94,-41.727 -52.71,20.868 -9.91,-140.583 23.08,-34.045 -383.33,-204.281 -438.17,-119.716 -181.23,-228.439 -389.87,6.549 -634.79,-203.171 -40.67,-209.783 -527.15,-60.401 -173.54,-126.295 -8.77,-243.829 -383.32,-210.854 -735.88,-57.126 -519.46,-739.131 -1781.42,-202.086 -3803.32,7837.287 h -5045.48 l -2354.73,-2018.614 -2691.82,4037.261 h -2018.62"
         vector-effect="none"
         id="path401"
         style="font-style:normal;font-weight:400;font-size:33.3333px;font-family:'MS Shell Dlg 2';fill:#fce5cd;fill-opacity:1;stroke:#000000;stroke-width:295.276;stroke-linecap:square;stroke-linejoin:bevel;stroke-dasharray:none;stroke-dashoffset:0.2;stroke-opacity:1" />
      <path
         fill-rule="evenodd"
         d="m 251190.62,83721.887 -2016.41,609.553 -5047.7,1412.374 3027.92,8070.135 -6055.91,10092.051 v 20184.11 h 34313.42 v -15474.7 l -3027.91,-6728.04 V 83721.887 h -21193.41"
         vector-effect="none"
         id="path402"
         style="font-style:normal;font-weight:400;font-size:33.3333px;font-family:'MS Shell Dlg 2';fill:#d9ead3;fill-opacity:1;stroke:#000000;stroke-width:295.276;stroke-linecap:square;stroke-linejoin:bevel;stroke-dasharray:none;stroke-dashoffset:0.2;stroke-opacity:1" />
      <path
         fill-rule="evenodd"
         d="m 230940.6,86891.516 -655.67,30.755 -475.57,1257.521 232.86,1153.18 0.82,1154.29 157,263.587 h 522.81 l 452.5,445.906 807.26,937.918 86.75,202.092 694.06,812.718 -0.81,444.803 94.45,1.071 -254.8,563.416 124.09,500.813 -99.95,1253.135 -305.24,150.47 -3183.92,-516.209 -787.46,-2534.808 -78,-37.335 -58.21,-162.553 -97.72,-68.092 -69.25,-88.959 -117.47,-47.23 -204.3,-383.295 -58.2,12.076 -35.12,-71.381 -68.1,-80.176 40.6,-124.098 -40.6,-97.744 -70.3,-23.08 -36.28,-43.933 -64.75,9.887 -1431.06,497.514 -4613.87,1500.263 425.07,1257.513 v 774.286 h 992.82 l 134,133.994 303.11,-168.023 227.32,34.029 445.95,336.072 470,67.004 404.21,269.075 34.04,160.341 235.01,58.211 505.22,-16.475 269.05,66.981 605.17,269.09 -34.05,168.039 135.13,50.529 167.97,-16.483 84.56,39.54 50.59,-30.747 h 134 l -151.59,394.283 -148.26,42.83 215.29,294.335 101.01,235.036 8.75,252.591 92.25,66.996 -168.04,319.595 50.59,133.987 135.05,68.107 -101.01,269.066 50.51,50.521 -34.05,83.473 h -101.09 l -16.46,404.161 134,639.205 68.1,50.52 -68.1,251.5 -285.51,84.57 151.51,386.6 -101.01,202.07 -135.14,-66.99 -269.05,133.99 68.1,185.61 -68.1,16.48 34.05,133.98 16.44,50.52 218.56,-16.47 84.64,168.04 -50.59,386.59 -151.51,151.56 v 218.56 h 151.51 l -25.21,412.95 126.3,7.69 151.51,-58.2 7.7,75.76 -58.2,49.43 209.79,135.09 -83.48,478.84 -193.26,59.31 v 117.52 h -101.1 l -50.49,218.56 50.49,68.09 -404.11,621.62 h -202.1 l -159.29,117.52 v 135.09 l 58.27,462.37 -117.54,209.77 -184.5,236.14 251.47,403.06 -117.48,-67 -2253.64,2253.66 504.06,1548.58 -50.5,471.15 50.5,135.09 251.54,269.08 17.52,235.04 134.01,303.11 236.15,134 32.9,470.05 169.19,237.24 32.9,216.35 0.82,487.64 99.95,978.57 -32.91,467.85 -102.15,136.2 -34.05,168.03 h 69.16 l 31.86,218.56 -99.96,151.56 -68.09,269.07 135.12,302.04 202.11,68.07 50.5,302.05 -84.55,285.54 v 218.55 l 102.09,203.19 v 641.39 l 101.08,52.74 83.41,-56.03 319.64,67 h 976.38 l 55.98,-34.05 4249.27,1983.48 10092.03,4373.34 v -20184.11 l 6055.9,-10092.052 -3027.99,-8070.136 -2017.49,-1177.353 -337.16,303.128 -151.59,50.52 -453.57,386.6 -673.25,319.587 -269.06,34.046 -605.17,420.653 h -706.17 l -958.84,504.111 -420.65,-303.143 h -673.18 l -235.08,606.263 -639.22,302.033 -689.64,-67.021 -151.59,-202.068 -487.61,17.569 -319.65,285.558 -370.06,-101.059 -572.24,67.021 -32.91,-269.089 -589.78,-352.548 -640.35,395.386 -452.49,-109.844 -739.07,37.36"
         vector-effect="none"
         id="path403"
         style="font-style:normal;font-weight:400;font-size:33.3333px;font-family:'MS Shell Dlg 2';fill:#d0e0e3;fill-opacity:1;stroke:#000000;stroke-width:295.276;stroke-linecap:square;stroke-linejoin:bevel;stroke-dasharray:none;stroke-dashoffset:0.2;stroke-opacity:1" />
      <path
         fill-rule="evenodd"
         d="m 230374.98,108785.63 h -6802.68 l 504.06,1548.57 -50.5,471.17 50.5,135.08 251.54,269.08 17.52,235.03 134.01,303.12 236.15,134 32.9,470.05 169.19,237.24 32.9,216.35 0.82,487.64 99.95,978.56 -32.91,467.87 -102.15,136.19 -34.05,168.03 h 69.16 l 31.86,218.56 -99.96,151.56 -68.09,269.08 135.12,302.02 202.11,68.09 50.5,302.04 -84.55,285.54 v 218.56 l 102.09,203.17 v 641.41 l 101.08,52.72 83.41,-56.03 319.64,67.02 h 976.38 l 55.98,-34.07 4249.27,1983.49 10092.03,4373.34 V 103906 l -4882.91,-3407.95 -154.86,195.49 -144.99,135.09 -148.32,108.72 -174.6,97.76 -203.15,86.76 -210.87,60.42 -203.16,26.35 -162.56,6.54 -169.11,-7.69 -164.79,-18.68 -154.87,-37.33 -160.35,-59.31 -152.65,-69.19 -136.14,-76.88 -1233.38,1148.8 135.05,158.15 124.1,197.69 93.39,186.7 69.18,166.94 52.71,182.32 52.71,260.28 14.32,211.98 -7.69,248.2 -36.25,220.75 -58.2,218.56 -65.91,179.02 -80.2,175.73 -118.62,193.3 -154.79,196.58 -142.83,160.36 -187.79,162.53 -191.12,134 -207.58,116.41 -200.97,88.96 -219.6,74.7 -205.39,47.22 327.26,807.22 165.84,6.64 152.66,21.95 142.76,32.95 143.9,47.23 144.96,64.8 123.02,68.1 135.08,94.45 91.17,76.88 106.5,105.43 95.54,121.91 73.58,107.62 60.39,123.02 61.57,146.07 45.02,158.16 19.73,137.28 9.92,137.29 -9.92,147.16 -20.88,140.57 -35.1,127.4 -52.73,139.49 -62.62,124.11 -79.06,125.2 -84.57,106.53 -103.22,107.63 -124.09,103.24 -124.17,85.67 -127.37,71.38 -133.98,58.22 -152.67,51.6 -149.39,34.04 -151.51,20.88 -154.88,6.56 -152.66,-5.48 -152.66,-21.97 -149.38,-35.15 -144.97,-47.23 -141.69,-62.59 -129.58,-72.49 -123.03,-84.57 -115.24,-96.66 -65.99,-68.09 -36.18,-37.33 -52.7,-64.81"
         vector-effect="none"
         id="path404"
         style="font-style:normal;font-weight:400;font-size:33.3333px;font-family:'MS Shell Dlg 2';fill:#ead1dc;fill-opacity:1;stroke:#000000;stroke-width:295.276;stroke-linecap:square;stroke-linejoin:bevel;stroke-dasharray:none;stroke-dashoffset:0.2;stroke-opacity:1" />
      <path
         fill-rule="evenodd"
         d="m 183574.26,19133.284 v 17450.837 l 867.89,264.023 366.12,276.988 159.81,-62.716 579.1,104.778 225.86,-416.354 257.49,-60.734 357.51,-374.85 323.59,-126.185 261.84,73.471 333.49,-409.769 h 571.88 l 908.41,1278.181 214.83,1157.578 -11.73,282.588 588.62,25.808 361.01,373.963 -67.88,773.626 -132.85,137.394 182.29,179.458 -22.93,214.714 -1054.08,539.362 -273.25,-94.341 -356.05,574.067 -147.94,83.033 -329.7,637.988 -127.82,496.639 -15.61,392.852 -433.92,357.709 -84.09,399.114 100.93,52.169 -125,552.873 -405.35,111.581 -352.7,235.473 111.61,57.66 -52.73,633.593 -169.94,257.877 20.78,276.436 -163.16,38.109 -63.84,177.151 -212.54,131.794 -214.36,-58.319 -125.46,267.98 -357.67,125.312 20.2,535.739 -84.11,136.847 17.99,196.261 h 25734.59 l -218.56,-353.314 -1290.52,-238.217 -138.34,-164.851 257.02,-661.052 -1536.5,-62.822 147.17,-540.352 -163.62,86.215 -126.31,-84.02 58.21,-273.687 325.05,-280.72 114.26,-1188.554 -756.74,-1185.699 -640.28,-569.897 -252.61,-370.118 225.11,-573.628 -84.56,-440.078 -292.14,29.761 -516.18,-484.999 197.68,-853.798 -337.16,102.469 34.06,-304.332 -219.64,-553.421 152.67,-363.196 -521.74,-243.927 -66.97,151.453 -472.22,68.743 -218.56,-336.401 252.61,-546.605 404.13,-260.731 269.06,-304.228 -387.68,-873.128 304.26,-337.723 680.88,-403.719 -295.42,-335.09 -50.51,-563.41 640.28,-177.816 -109.86,-335.192 656.81,-732.875 -25.29,-412.07 -152.66,-234.38 454.7,-353.205 471.17,49.422 539.26,-168.144 739.15,134.535 -0.82,-7668.926 -10090.96,-5046.031 H 183574.5"
         vector-effect="none"
         id="path405"
         style="font-style:normal;font-weight:400;font-size:33.3333px;font-family:'MS Shell Dlg 2';fill:#7d8b8f;fill-opacity:1;stroke:#000000;stroke-width:295.276;stroke-linecap:square;stroke-linejoin:bevel;stroke-dasharray:none;stroke-dashoffset:0.2;stroke-opacity:1" />
      <path
         fill-rule="evenodd"
         d="m 228349.78,93012.206 787.46,2534.807 3183.92,516.21 305.24,-150.47 99.95,-1253.144 -124.09,-500.804 254.8,-563.416 -94.45,-1.071 0.81,-444.804 -694.06,-812.725 -86.75,-202.077 -807.26,-937.925 -452.5,-445.914 h -522.81 l -157,-263.579 -0.82,-1154.29 -232.86,-1153.196 475.57,-1257.505 655.67,-30.755 -117.55,-381.121 -618.34,-702.881 75.8,-177.92 24.15,-377.799 -208.64,-466.782 45.01,-452.48 -66.97,-477.755 -68.09,-168.04 -394.3,-475.55 -553.51,-508.503 -132.93,54.905 -47.23,109.843 -13.17,278.953 -352.55,-259.203 -233.87,38.455 -119.75,-41.745 -72.54,20.876 -39.52,51.623 -154.8,2.133 -264.71,-256.991 -386.59,-14.271 -273.48,-235.045 -88.91,71.398 -23.08,34.045 9.82,140.584 52.79,-20.877 99.88,41.737 12.1,46.12 -36.25,58.22 -16.46,173.526 51.65,26.355 58.19,-39.54 77.94,125.201 29.71,-64.792 -0.82,-76.876 23.02,-46.122 59.33,29.646 79.07,-28.551 45.03,36.233 24.15,62.596 3.04,146.079 85.7,77.969 29.63,92.258 124.1,40.642 46.17,68.099 29.64,102.129 -66.97,61.519 -64.84,240.521 47.25,54.899 161.41,76.892 74.74,90.061 73.58,12.075 43.87,54.906 93.4,49.435 -53.85,209.769 31.84,39.532 -7.69,40.626 68.1,121.919 75.8,31.849 26.35,57.11 -20.88,30.754 6.87,15.373 19.8,-6.556 25.21,48.333 43.95,19.758 31.86,95.556 45.01,-17.586 -9.9,31.865 -162.48,151.548 -40.69,-9.879 -101,152.666 -41.76,14.271 6.86,43.941 -164.7,125.202 -117.53,-25.269 -49.45,37.344 -70.31,3.274 -45.02,79.08 -42.81,12.075 -45.02,-17.569 -48.38,51.623 17.6,31.841 57.14,-12.075 61.47,82.363 -12.04,113.125 50.51,138.395 74.66,75.773 20.87,83.466 30.78,-6.55 23.07,21.97 -27.5,107.625 -123.02,211.971 -51.57,46.121 26.35,50.528 -10.96,18.673 -46.17,-3.354 -16.45,28.559 19.73,28.559 5.33,54.913 -28.48,32.944 -82.44,-81.277 -28.56,56.008 36.25,53.828 12.12,148.274 -49.43,56 v 70.303 l 126.29,-25.285 59.27,53.828 -4.58,239.429 39.55,162.537 -58.21,127.396 35.19,60.416 2.29,48.325 -25.29,59.307 -4.57,101.034 -57.06,107.624 -42.88,136.198 10.97,61.502 92.32,26.355 -7.7,136.182 9.84,43.933 30.78,8.793 21.93,63.706 38.47,31.849 16.46,82.363 108.78,-7.691 71.37,-38.437 43.89,3.274 71.45,36.242 46.08,-24.158 35.13,69.177 -163.63,112.031 15.39,52.717 -239.43,229.535 -90.05,-85.661 -106.48,57.117 -58.29,92.258 -68.1,38.438 -14.24,52.726 -32.98,14.255 -0.82,-68.083 -180.09,-31.849 -144.96,120.816 -15.4,90.046 -88.96,102.145 -14.26,177.926 140.55,147.155 -103.21,411.86 14.24,85.661 50.51,52.726 17.59,64.792 -62.62,26.372 -31.84,60.392 -35.12,7.682 -55.99,180.124 -6.85,97.752 -74.73,118.611 h -83.42 l 8.76,108.726 -116.4,76.869 h -48.36 l -32.92,59.313 -113.13,-29.645 -39.52,93.345 66.95,42.838 92.25,28.55 18.67,-20.86 41.74,3.275 36.26,30.747 2.28,30.763 52.73,39.54 40.67,48.318 -29.71,24.166 -40.59,-2.221 -35.13,48.333 -24.23,5.479 -20.86,56.008 29.7,-3.274 45.01,43.932 12.05,-34.053 84.55,24.159 65.99,46.136 25.2,68.09 32.98,31.859 34.06,13.168 32.9,61.503 -18.66,50.537 9.91,16.461 75.8,5.477 30.69,25.269 9.91,30.756 -25.22,26.346 -3.05,74.696 102.09,72.476 47.22,-58.213 15.39,-77.97 70.31,-49.427 46.09,-2.132 37.4,-50.53 79.09,47.224 0.7,47.222 41.76,48.333 64.74,-9.887 36.26,43.933 70.32,23.072 40.59,97.752 -40.59,124.098 68.1,80.168 35.12,71.389 58.2,-12.076 204.3,383.295 117.47,47.23 69.25,88.959 97.73,68.092 58.21,162.553 77.92,37.335"
         vector-effect="none"
         id="path406"
         style="font-style:normal;font-weight:400;font-size:33.3333px;font-family:'MS Shell Dlg 2';fill:#d9d2e9;fill-opacity:1;stroke:#000000;stroke-width:295.276;stroke-linecap:square;stroke-linejoin:bevel;stroke-dasharray:none;stroke-dashoffset:0.2;stroke-opacity:1" />
      <path
         fill-rule="evenodd"
         d="m 126218.12,45372.739 19343.28,18163.831 -235.46,-12613.803 -1951.06,-2522.74 840.92,-5381.88 V 40914.62 l -2609.93,-2605.659 -249.39,67.214 235.46,218.667 -100.94,235.47 -134.52,-50.52 -437.34,201.863 -168.28,285.88 -1244.67,-420.42 -235.46,201.865 -437.35,470.829 -470.92,-639.084 -302.81,-33.61 -370.15,470.942 -504.53,-403.725 201.87,-437.224 -1042.95,-67.324 -941.86,269.188 -1042.94,-470.944 -370,100.933 -33.6,-302.793 -1261.57,-50.413 117.69,723.217 -639.05,235.36 538.11,403.725 -33.59,605.478 -1110.14,67.216 -773.74,336.403 -874.67,1244.566 -3700.41,3801.019"
         vector-effect="none"
         id="path408"
         style="font-style:normal;font-weight:400;font-size:33.3333px;font-family:'MS Shell Dlg 2';fill:#f4cccc;fill-opacity:1;stroke:#000000;stroke-width:295.276;stroke-linecap:square;stroke-linejoin:bevel;stroke-dasharray:none;stroke-dashoffset:0.2;stroke-opacity:1" />
      <path
         fill-rule="evenodd"
         d="m 140721.99,-2988.1873 552.66,-199.6552 31.69,-510.696 6035.8,-5089.4145 h -1882.13 v -269.0817 h -4533.33 l -3853.31,5601.9788 3648.62,466.8686"
         vector-effect="none"
         id="path409"
         style="font-style:normal;font-weight:400;font-size:33.3333px;font-family:'MS Shell Dlg 2';fill:#e77148;fill-opacity:1;stroke:#000000;stroke-width:295.276;stroke-linecap:square;stroke-linejoin:bevel;stroke-dasharray:none;stroke-dashoffset:0.2;stroke-opacity:1" />
      <path
         fill-rule="evenodd"
         d="m 133786.92,7695.744 h 9082.82 V 5677.3291 l 12110.36,-6391.63392 -605.47,-336.41198 67.35,-168.2459 201.72,-100.8244 1042.94,-134.6491 1782.95,100.927 369.98,67.3188 67.19,-67.3188 -100.76,-134.5352 v -168.1433 l 100.76,-201.8654 370.16,-235.4736 -740.14,-403.7194 -369.99,-504.5553 168.12,-67.3189 v -100.927 l -403.59,-437.339 134.53,-672.8126 -235.47,-168.1433 134.53,-841.0584 -235.47,-605.4823 168.28,-168.2573 -302.8,-269.0703 168.12,-269.0704 -874.52,-571.8855 33.58,-100.927 201.89,-1513.8596 h -8781.85 l -6035.8,5089.4145 -31.61,510.696 -552.74,199.6552 -5589.47,5974.3003 -1345.6,4709.631"
         vector-effect="none"
         id="path410"
         style="font-style:normal;font-weight:400;font-size:33.3333px;font-family:'MS Shell Dlg 2';fill:#ff9e17;fill-opacity:1;stroke:#000000;stroke-width:295.276;stroke-linecap:square;stroke-linejoin:bevel;stroke-dasharray:none;stroke-dashoffset:0.2;stroke-opacity:1" />
      <path
         fill-rule="evenodd"
         d="m 141306.34,-3698.5385 -31.61,510.696 570.65,-205.9326 1536.81,809.1022 2112.02,283.1288 418.3,-70.7253 1130.77,-1751.418 480.54,-380.2279 297.17,-985.5849 2628.97,-3298.4528 h -3107.82 l -6035.8,5089.4145"
         vector-effect="none"
         id="path411"
         style="font-style:normal;font-weight:400;font-size:33.3333px;font-family:'MS Shell Dlg 2';fill:#729b6f;fill-opacity:1;stroke:#000000;stroke-width:295.276;stroke-linecap:square;stroke-linejoin:bevel;stroke-dasharray:none;stroke-dashoffset:0.2;stroke-opacity:1" />
      <path
         fill-rule="evenodd"
         d="m 147342.14,-8787.953 -6035.8,5089.4145 -31.61,510.696 570.65,-205.9326 1536.81,809.1022 2112.02,283.1288 418.3,-70.6113 451.81,-703.6637 6759.63,3327.66341 1856.15,-966.14913 -605.47,-336.41198 67.35,-168.2459 201.86,-100.8244 1042.8,-134.6491 1782.95,100.927 369.98,67.3188 67.19,-67.3188 -100.76,-134.5352 v -168.1433 l 100.76,-201.8654 370.16,-235.4736 -740.14,-403.7194 -369.99,-504.5553 168.12,-67.3189 v -100.927 l -403.59,-437.339 134.53,-672.8126 -235.47,-168.1433 134.53,-841.0584 -235.47,-605.4823 168.28,-168.2573 -302.8,-269.0703 168.12,-269.0704 -874.52,-571.8855 33.58,-100.927 201.89,-1513.8596 h -8781.85 v 0"
         vector-effect="none"
         id="path412"
         style="font-style:normal;font-weight:400;font-size:33.3333px;font-family:'MS Shell Dlg 2';fill:#a47158;fill-opacity:1;stroke:#000000;stroke-width:295.276;stroke-linecap:square;stroke-linejoin:bevel;stroke-dasharray:none;stroke-dashoffset:0.2;stroke-opacity:1" />
      <path
         fill-rule="evenodd"
         d="m 153123.49,251.61646 -6758.26,-3327.11656 -452.72,703.3447 -418.3,70.6113 -2112.02,-283.1288 -1536.81,-809.1022 -1123.39,405.5878 -5589.47,5974.3003 -1345.6,4709.631 h 9082.82 V 5677.3291 L 153123.49,251.61646"
         vector-effect="none"
         id="path413"
         style="font-style:normal;font-weight:400;font-size:33.3333px;font-family:'MS Shell Dlg 2';fill:#7d8b8f;fill-opacity:1;stroke:#000000;stroke-width:295.276;stroke-linecap:square;stroke-linejoin:bevel;stroke-dasharray:none;stroke-dashoffset:0.2;stroke-opacity:1" />
      <path
         fill-rule="evenodd"
         d="m 142869.89,8368.5337 0.82,2693.9733 h -6728.17 v 4036.601 1006.559 103.456 l -1513.89,117.743 -218.63,117.731 -286.04,336.4 -168.12,336.287 -126.16,504.669 42.06,504.544 117.68,1009.099 100.94,1009.088 33.6,336.412 -2018.71,-2.21 h -2186.54 l -3700.26,2.21 -302.72,1110.015 -3902.28,3599.274 -2018.41,-2018.301 v 10091.289 l -2758.17,4104.034 8981.58,8005.332 3700.5,-3801.019 874.67,-1244.566 773.67,-336.403 1110.13,-67.216 33.67,-605.478 -538.19,-403.725 639.13,-235.36 -117.77,-723.217 1261.58,50.413 33.58,302.793 370.08,-100.933 1042.88,470.944 941.85,-269.188 1042.95,67.324 -201.86,437.224 504.51,403.725 370.16,-470.942 302.8,33.61 470.94,639.084 437.33,-470.829 235.47,-201.865 1244.66,420.42 168.28,-285.88 437.34,-201.863 134.52,50.52 100.94,-235.47 -235.46,-218.667 249.39,-67.214 2609.93,2605.659 v 2103.527 l 4810.7,269.079 167.61,-673.135 572.38,-2286.937 908.44,-1009.097 1042.79,-1749.115 437.32,-3330.078 941.94,-3700.099 33.68,-15776.069 -10260.77,-6394.1623"
         vector-effect="none"
         id="path414"
         style="font-style:normal;font-weight:400;font-size:33.3333px;font-family:'MS Shell Dlg 2';fill:#e6b8af;fill-opacity:1;stroke:#000000;stroke-width:295.276;stroke-linecap:square;stroke-linejoin:bevel;stroke-dasharray:none;stroke-dashoffset:0.2;stroke-opacity:1" />
      <path
         fill-rule="evenodd"
         d="m 109902.44,15096.465 -25230.062,14130.522 32564.162,8140.42 2758.09,-4104.034 V 23172.084 l -10092.19,-8075.619"
         vector-effect="none"
         id="path415"
         style="font-style:normal;font-weight:400;font-size:33.3333px;font-family:'MS Shell Dlg 2';fill:#ead1dc;fill-opacity:1;stroke:#000000;stroke-width:295.276;stroke-linecap:square;stroke-linejoin:bevel;stroke-dasharray:none;stroke-dashoffset:0.2;stroke-opacity:1" />
      <path
         fill-rule="evenodd"
         d="m 209140.95,-5087.5352 2018.57,4709.61957 -202.03,235.47358 -404.2,269.08173 101.02,235.57611 -32.92,269.08173 269.07,706.40938 -169.12,571.8741 -437.1,740.1314 101,336.4006 11798.79,-1.6633 h 1210.32 l 452.49,1.6633 -342.66,-467.0964 -619.46,-853.9207 -4504.02,-6190.3153 -2263.53,-408.5613 -921.45,-153.7545 h -3133.43 -230.57 -2690.77"
         vector-effect="none"
         id="path416"
         style="font-style:normal;font-weight:400;font-size:33.3333px;font-family:'MS Shell Dlg 2';fill:#e77148;fill-opacity:1;stroke:#000000;stroke-width:295.276;stroke-linecap:square;stroke-linejoin:bevel;stroke-dasharray:none;stroke-dashoffset:0.2;stroke-opacity:1" />
      <path
         fill-rule="evenodd"
         d="m 218380.7,-4525.2194 4504.02,6190.3153 619.46,853.9207 342.66,467.0964 6651.17,-40.4209 -269.07,-699.3801 -140.62,-94.456 -3.05,-51.1756 30.78,-103.9004 -76.86,-99.2751 3.03,-91.8244 -61.55,-208.8832 -151.51,-295.4442 -398.72,-1000.74847 -441.45,-1002.83329 -4719.28,-1980.63704 -3355.25,-1395.4677 -2533.76,-446.886"
         vector-effect="none"
         id="path417"
         style="font-style:normal;font-weight:400;font-size:33.3333px;font-family:'MS Shell Dlg 2';fill:#ff9e17;fill-opacity:1;stroke:#000000;stroke-width:295.276;stroke-linecap:square;stroke-linejoin:bevel;stroke-dasharray:none;stroke-dashoffset:0.2;stroke-opacity:1" />
      <path
         fill-rule="evenodd"
         d="m 226486.02,8509.7791 685.3,1789.6399 h 3001.55 l 1234.46,-1260.9323 -1242.15,-2217.4207 766.64,-2533.7248 -119.73,-263.1348 -83.5,-236.4648 24.22,-76.6607 -86.75,-285.9884 -157.09,-428.5439 4.56,-31.6372 -15.38,-19.2193 -6651.15,40.4209 757.81,913.8685 2574.36,3096.0406 -692.99,1513.757"
         vector-effect="none"
         id="path418"
         style="font-style:normal;font-weight:400;font-size:33.3333px;font-family:'MS Shell Dlg 2';fill:#8d5a99;fill-opacity:1;stroke:#000000;stroke-width:295.276;stroke-linecap:square;stroke-linejoin:bevel;stroke-dasharray:none;stroke-dashoffset:0.2;stroke-opacity:1" />
      <path
         fill-rule="evenodd"
         d="m 225958.8,19131.096 -2823.68,-7734.946 -12312.77,-6896.2913 0.81,14633.3223 15135.39,-2.085"
         vector-effect="none"
         id="path419"
         style="font-style:normal;font-weight:400;font-size:33.3333px;font-family:'MS Shell Dlg 2';fill:#729b6f;fill-opacity:1;stroke:#000000;stroke-width:295.276;stroke-linecap:square;stroke-linejoin:bevel;stroke-dasharray:none;stroke-dashoffset:0.2;stroke-opacity:1" />
      <path
         fill-rule="evenodd"
         d="m 238071.67,23170.113 -4138.27,11572.201 196.6,-22.295 630.37,-113.892 334.96,140.14 160.43,-63.924 48.29,-234.368 334.96,-62.819 556.85,704.871 724.84,-1600.853 302.05,407.798 344.85,20.096 399.78,548.372 909.33,-192.307 363.53,-323.448 363.51,444.471 653.53,-223.716 337.16,100.927 495.32,178.362 320.71,-126.742 359.1,240.52 854.49,370.009 358.02,185.619 576.59,954.176 1053.25,705.976 180.15,115.977 131.79,384.614 276.76,387.246 364.57,121.251 263.66,521.134 120.74,51.95 78.02,-102.36 26.35,-8.459 126.3,37.67 137.25,84.02 99.97,112.684 125.22,99.173 30.78,-48.653 83.42,-10.218 42.81,-57.657 86.77,-37.672 6.86,-21.857 -8.76,-29.103 -25.22,-96.978 5.34,-24.712 102.07,-125.532 36.27,-48.213 8.76,-31.307 22.01,-6.255 18.66,9.012 12.12,13.397 8.75,5.697 148.24,-63.696 275.69,-122.676 160.35,-84.237 -1412.41,-3532.16 -505.21,-1749.345 -1183.88,-602.622 -1338.82,-675.65 -4024.08,-6448.859 -1021.4,-1624.789"
         vector-effect="none"
         id="path420"
         style="font-style:normal;font-weight:400;font-size:33.3333px;font-family:'MS Shell Dlg 2';fill:#7d8b8f;fill-opacity:1;stroke:#000000;stroke-width:295.276;stroke-linecap:square;stroke-linejoin:bevel;stroke-dasharray:none;stroke-dashoffset:0.2;stroke-opacity:1" />
      <path
         fill-rule="evenodd"
         d="m 183574.26,-5760.3364 v 3969.4882 l -1211.07,471.0611 -134.54,269.0703 -302.81,100.93841 -236.68,440.73398 -469.72,63.80993 -370.14,437.3389897 302.81,807.3363403 33.67,370.12265 -135.68,373.5177 -504.53,504.6578 -201.86,269.1957 -638.14,198.2312 -336.41,134.5465 v 201.8655 l 269.23,302.6784 504.51,1009.2018 269.22,908.2861 -137.65,1281.3481 205.98,935.0701 -337.55,1214.9179 270.21,836.9913 v 639.0904 l -807.48,336.401 -303.65,374.076 1313,1711.441 -0.81,912.547 336.41,201.763 67.25,336.4 504.61,269.196 404.79,-172.553 639.22,201.866 874.66,571.874 336.42,-134.535 770.99,1470.146 -974.02,544.087 v 2531.413 h 15138.58 l 10090.96,5046.031 v -1009.202 l 2019.7,-0.307 v -4036.602 l -0.81,-14633.3112 -235,-639.0904 66.95,-134.6491 -168.04,-437.2251 V 3120.671 l -101.02,-134.5352 -101,-336.412 437.11,-740.12 169.11,-571.8628 -269.06,-706.4207 32.9,-269.08173 -101,-235.56471 404.21,-269.09313 202,-235.47357 -2018.62,-4709.61956 -1177.34,-672.8012 h -24389.37"
         vector-effect="none"
         id="path421"
         style="font-style:normal;font-weight:400;font-size:33.3333px;font-family:'MS Shell Dlg 2';fill:#beb297;fill-opacity:1;stroke:#000000;stroke-width:295.276;stroke-linecap:square;stroke-linejoin:bevel;stroke-dasharray:none;stroke-dashoffset:0.2;stroke-opacity:1" />
      <path
         fill-rule="evenodd"
         d="m 228822.01,65562.012 -17.59,-1009.204 118.6,-723.106 -135.07,-521.466 420.66,-504.541 -34.05,-168.147 68.11,-67.326 16.46,-201.756 285.59,-151.342 17.51,-50.515 58.22,-50.414 v -100.929 l 210.92,-134.535 83.43,-151.344 109.83,-420.531 114.19,8.455 5.34,-25.259 6.85,-67.213 134,-50.52 67.03,-67.22 252.61,-42.058 50.51,-143 -50.51,-134.539 -67.03,-117.732 139.48,-33.611 79.15,-218.668 151.51,-67.317 101.01,-201.758 67.03,-479.395 -109.84,-176.601 -125.16,-824.046 66.96,-67.319 -45.02,-151.342 h -55.98 l -16.53,-134.537 -50.52,50.408 -176.8,-252.279 -8.76,-235.464 -133.99,-134.539 -101.1,16.808 -129.58,-134.547 -55.99,-302.685 -32.98,-100.928 -118.62,-33.611 -66.95,-67.319 -50.51,-235.472 -67.03,-218.552 34.05,-50.53 -34.05,-100.921 101.08,-67.217 16.46,-319.605 -117.54,-50.406 -34.06,-67.328 -117.47,-8.349 -34.05,92.482 -117.54,-193.418 -168.04,42.075 50.51,-67.327 -75.73,-8.348 25.22,-42.066 117.53,-16.804 -16.45,-92.579 -269.13,8.455 67.03,-50.414 34.06,-100.929 -117.55,-100.935 h -6711.56 l 504.14,4541.039 -2522.77,3531.838 -24.16,40.968 -177.95,900.919 50.58,24.048 -12.11,219.766 -83.49,227.123 12.11,403.608 h -92.26 l -22,598.128 46.15,44.377 v 332.994 h 135.07 l 133.99,-100.94 101.1,67.339 82.35,-111.596 60.41,90.276 45.01,15.707 15.39,133.335 61.48,114.997 235.01,-116.647 276.82,-186.164 2.28,-99.718 138.35,-75.663 176.82,-235.472 72.5,-151.35 h 203.18 l 750.13,-117.732 h 336.09 2018.63 3364.01 505.22"
         vector-effect="none"
         id="path422"
         style="font-style:normal;font-weight:400;font-size:33.3333px;font-family:'MS Shell Dlg 2';fill:#f4cccc;fill-opacity:1;stroke:#000000;stroke-width:295.276;stroke-linecap:square;stroke-linejoin:bevel;stroke-dasharray:none;stroke-dashoffset:0.2;stroke-opacity:1" />
      <path
         fill-rule="evenodd"
         d="M 163390.12,-12046.099 V 6013.7296 h 7064.49 V -15179.587 h -672.79 l -1850.21,1345.602 -4541.49,1787.886"
         vector-effect="none"
         id="path423"
         style="font-style:normal;font-weight:400;font-size:33.3333px;font-family:'MS Shell Dlg 2';fill:#ff9e17;fill-opacity:1;stroke:#000000;stroke-width:295.276;stroke-linecap:square;stroke-linejoin:bevel;stroke-dasharray:none;stroke-dashoffset:0.2;stroke-opacity:1" />
      <path
         fill-rule="evenodd"
         d="M 170454.61,-15179.587 V 6013.7296 h -4036.87 V 23237.432 l 437.33,269.082 67.34,941.985 -269.14,437.225 437.34,403.731 5012.34,-983.944 3128.63,-2750.093 9316.61,-5497.634 -770.93,-1470.146 -336.46,134.535 -874.6,-571.874 -639.22,-201.866 -404.88,172.553 -504.53,-269.196 -67.33,-336.4 -336.41,-201.763 0.82,-912.547 -1312.92,-1711.441 303.63,-374.076 807.49,-336.401 v -639.0904 l -270.21,-836.9913 337.48,-1214.9179 -205.91,-935.0701 137.66,-1281.3481 -269.23,-908.2861 -504.51,-1009.2018 -269.22,-302.6784 v -201.8655 l 336.4,-134.5465 -1042.79,-3767.7367 -1547.48,-1446.5408 h 67.34 l -437.33,-538.1634 h -134.61 l -302.73,-134.6491 h -201.87 l -134.53,-201.7515 v -370.1113 l -269.13,-336.412 -168.2,-403.6169 v -504.6464 l 235.46,-336.412 h 302.81 l 100.86,-403.6055 807.41,-437.339 v -134.5351 l 100.92,-67.3303 -67.33,-370.0087 336.4,-605.5849 -235.47,-100.927 v -235.4736 l 100.94,-201.8654 -67.26,-370.0087 -134.61,-134.5352 100.93,-874.667 134.53,-504.5553 -470.94,-67.3191 v -100.938 l 672.82,-369.998 -100.94,-134.546 403.74,-134.535 v -201.866 l 67.26,-33.71 -1311.94,-4171.365 h -6055.29"
         vector-effect="none"
         id="path424"
         style="font-style:normal;font-weight:400;font-size:33.3333px;font-family:'MS Shell Dlg 2';fill:#8d5a99;fill-opacity:1;stroke:#000000;stroke-width:295.276;stroke-linecap:square;stroke-linejoin:bevel;stroke-dasharray:none;stroke-dashoffset:0.2;stroke-opacity:1" />
      <path
         fill-rule="evenodd"
         d="m 170454.61,-15179.587 h -672.79 l -1850.21,1345.602 -4541.49,1787.886 v 3594.5466 h 7064.49 v -6728.0346 0"
         vector-effect="none"
         id="path425"
         style="font-style:normal;font-weight:400;font-size:33.3333px;font-family:'MS Shell Dlg 2';fill:#729b6f;fill-opacity:1;stroke:#000000;stroke-width:295.276;stroke-linecap:square;stroke-linejoin:bevel;stroke-dasharray:none;stroke-dashoffset:0.2;stroke-opacity:1" />
      <path
         fill-rule="evenodd"
         d="m 170454.61,-15179.587 v 0 8477.3677 h 6602.56 l -42.81,-235.4735 336.4,-605.5849 -235.46,-100.927 v -235.4736 l 100.93,-201.8654 -67.19,-370.0087 -134.68,-134.5352 100.94,-874.667 134.52,-504.5553 -470.93,-67.3191 v -100.938 l 672.81,-369.998 -100.94,-134.546 403.74,-134.535 v -201.866 l 67.34,-33.71 -1312,-4171.365 h -6055.23"
         vector-effect="none"
         id="path426"
         style="font-style:normal;font-weight:400;font-size:33.3333px;font-family:'MS Shell Dlg 2';fill:#a47158;fill-opacity:1;stroke:#000000;stroke-width:295.276;stroke-linecap:square;stroke-linejoin:bevel;stroke-dasharray:none;stroke-dashoffset:0.2;stroke-opacity:1" />
      <path
         fill-rule="evenodd"
         d="m 177057.17,-6702.2193 v 0 h -6602.56 V 11059.75 h 9132.05 l -284.68,-370.111 303.65,-374.076 807.48,-336.401 v -639.0904 l -270.21,-836.9913 337.55,-1214.9179 -205.98,-935.0701 137.65,-1281.3481 -269.22,-908.2861 -504.51,-1009.2018 -269.23,-302.6784 v -201.8655 l 336.41,-134.5465 -1042.8,-3767.7367 -1547.47,-1446.5408 h 67.34 l -437.33,-538.1634 h -134.54 l -302.81,-134.6491 h -201.88 l -134.52,-201.7515 v -370.1113 l -269.06,-336.412 -168.27,-403.6169 v -504.6464 l 235.46,-336.412 h 302.81 l 100.94,-403.6055 807.33,-437.339 v -134.5351 l 100.93,-67.3303 -24.53,-134.5352"
         vector-effect="none"
         id="path427"
         style="font-style:normal;font-weight:400;font-size:33.3333px;font-family:'MS Shell Dlg 2';fill:#7d8b8f;fill-opacity:1;stroke:#000000;stroke-width:295.276;stroke-linecap:square;stroke-linejoin:bevel;stroke-dasharray:none;stroke-dashoffset:0.2;stroke-opacity:1" />
      <path
         fill-rule="evenodd"
         d="m 170454.61,6013.7296 v 0 h -4036.87 V 23237.432 l 437.33,269.082 67.34,941.985 -269.14,437.225 437.34,403.731 5012.34,-983.944 3128.63,-2750.093 9316.61,-5497.634 -770.93,-1470.146 -336.46,134.535 -874.6,-571.874 -639.22,-201.866 -404.88,172.553 -504.53,-269.196 -67.33,-336.4 -336.41,-201.763 0.82,-912.547 -1028.24,-1341.33 h -9132.13 V 6013.7296"
         vector-effect="none"
         id="path428"
         style="font-style:normal;font-weight:400;font-size:33.3333px;font-family:'MS Shell Dlg 2';fill:#beb297;fill-opacity:1;stroke:#000000;stroke-width:295.276;stroke-linecap:square;stroke-linejoin:bevel;stroke-dasharray:none;stroke-dashoffset:0.2;stroke-opacity:1" />
      <path
         fill-rule="evenodd"
         d="m 166417.74,6013.7296 v 0 h -3027.62 V -714.30482 H 154980.1 L 142869.74,5677.3291 v 2691.2046 l 17465.81,10944.7533 26.89,148.058 2354.8,1449.275 33.76,745.736 941.86,370.009 67.33,370.009 538.13,285.988 336.39,16.804 168.28,-134.535 521.36,521.348 891.44,151.453 201.95,85.114 V 6013.7296"
         vector-effect="none"
         id="path429"
         style="font-style:normal;font-weight:400;font-size:33.3333px;font-family:'MS Shell Dlg 2';fill:#e5b636;fill-opacity:1;stroke:#000000;stroke-width:295.276;stroke-linecap:square;stroke-linejoin:bevel;stroke-dasharray:none;stroke-dashoffset:0.2;stroke-opacity:1" />
      <path
         fill-rule="evenodd"
         d="m 173650.35,57482.983 -7738.75,-5450.844 -84.17,-1463.13 136.2,-520.475 -85.7,-337.277 33.67,-336.399 67.26,-50.412 -32.07,-150.574 -39.68,-608.005 103.07,-5.599 v -129.488 l -142.84,-171.548 -6.08,-448.428 -84.04,-168.256 134.53,-672.693 -134.53,-218.667 151.3,-494.443 -49.29,-394.722 77.85,-303.781 16.92,-317.954 307.76,-2.742 307.29,-56.671 139.56,-438.322 -46.54,-269.736 303.87,-439.53 132.41,-13.949 -49.91,-209.658 99.72,-137.945 353.84,-56.671 105.35,-261.171 155.34,-330.799 -192.36,-227.014 167.22,-389.12 245.51,128.389 144.13,-491.039 -214.21,-397.576 45.41,-149.038 -29.79,-161.883 h -13641 l 146.27,588.677 19.56,8.348 21.34,7.357 1.53,26.36 -53.88,128.938 67.82,141.896 62.75,146.29 52.73,72.817 14.09,14.06 27.42,28.113 48.76,8.9 58.89,5.6 1.53,12.848 -39.79,30.312 -58.27,11.752 -27.5,29.214 -11.87,44.261 v 13.398 l -9.98,32.071 -8.47,19.549 13.95,27.455 19.66,9.12 32.52,9.446 81.43,59.418 34.67,7.361 4.57,9.446 -19.13,65.127 -84.09,84.018 7.92,33.717 12.19,21.856 3.04,39.21 -0.81,11.202 3.05,24.711 v 14.057 41.517 l -10.67,73.364 70.47,151.89 18.13,37.561 -35.5,146.841 39.91,49.421 100.94,740.128 -134.61,941.881 235.55,67.327 134.53,437.222 168.12,1177.461 -571.87,504.546 -269.05,672.805 -67.35,773.735 -168.11,302.794 -437.34,807.343 336.4,1211.065 134.52,773.736 100.94,67.221 201.87,33.707 201.79,100.937 33.67,975.493 h -201.87 -538.26 l 235.54,874.664 v 3397.621 h 8460.29 v 495.104 l 2896.2,-495.104 h 7986.25"
         vector-effect="none"
         id="path430"
         style="font-style:normal;font-weight:400;font-size:33.3333px;font-family:'MS Shell Dlg 2';fill:#cfe2f3;fill-opacity:1;stroke:#000000;stroke-width:295.276;stroke-linecap:square;stroke-linejoin:bevel;stroke-dasharray:none;stroke-dashoffset:0.2;stroke-opacity:1" />
      <path
         fill-rule="evenodd"
         d="m 173650.35,57482.983 h -7986.25 l -2896.21,495.103 v -495.103 h -8460.29 l 0.81,9787.07 -0.81,15510.618 19342.97,-7401.276 V 71948.264 57482.983"
         vector-effect="none"
         id="path431"
         style="font-style:normal;font-weight:400;font-size:33.3333px;font-family:'MS Shell Dlg 2';fill:#fff2cc;fill-opacity:1;stroke:#000000;stroke-width:295.276;stroke-linecap:square;stroke-linejoin:bevel;stroke-dasharray:none;stroke-dashoffset:0.2;stroke-opacity:1" />
      <path
         fill-rule="evenodd"
         d="m 154811.98,43623.297 -5785.48,-336.071 -4810.7,-269.079 -840.92,5381.88 1951.06,2522.74 235.46,12613.803 8747.11,3733.483 -0.8,-13184.69 -235.63,-874.673 h 538.28 201.87 l -33.6,-975.485 -201.87,-100.936 -201.87,-33.708 -100.93,-67.221 -134.53,-773.736 -336.41,-1211.07 437.34,-807.338 168.2,-302.793 67.27,-773.734 269.07,-672.807 571.93,-504.546 -168.2,-1177.463 -134.53,-437.224 -235.47,-67.323 134.53,-941.881 -100.93,-740.128"
         vector-effect="none"
         id="path432"
         style="font-style:normal;font-weight:400;font-size:33.3333px;font-family:'MS Shell Dlg 2';fill:#d0e0e3;fill-opacity:1;stroke:#000000;stroke-width:295.276;stroke-linecap:square;stroke-linejoin:bevel;stroke-dasharray:none;stroke-dashoffset:0.2;stroke-opacity:1" />
      <path
         fill-rule="evenodd"
         d="m 165911.6,52032.139 7738.75,5450.844 3868.69,-3364.018 78.54,-67.218 -29.57,-100.052 50.52,-125.527 33.6,-14.063 37.92,32.188 96.6,-60.747 -11.2,-44.259 -47.61,-25.261 42.05,-84.12 56.14,-16.807 v -64.469 l 93.55,-95.33 -31.99,-8.347 133.22,-206.154 58.89,-30.858 89.75,-148.594 37.78,-528.269 124.77,-267.871 -172.46,-242.284 116.4,-145.745 -74.35,-84.122 636.39,-565.062 67.27,-106.528 159.81,-62.824 143,-229.762 25.13,-117.728 166.67,78.413 68.78,-267.428 134.16,23.615 101.47,-84.132 33.29,-106.096 216.12,30.421 153.12,-571.871 186.18,53.27 580.31,-532.555 43.36,143.874 -16.77,50.525 82.64,97.084 513.07,-45.911 42.05,29.109 30.86,-30.75 51.64,-22.513 29.63,-43.714 37.56,-188.904 15.7,-246.672 58.88,56.009 11.2,71.83 -13.71,44.04 204.39,130.802 39.16,47.668 36.49,-2.771 57.43,73.8 26.66,-20.537 133.15,68.206 -53.31,168.146 22.46,39.313 100.7,77.542 34.13,56.011 26.37,-14.057 12.64,127.179 61.41,43.821 103.44,1.016 77.63,-71.061 54.62,12.191 8.45,-5.614 62.01,70.29 -3.04,273.585 69.02,16.802 33.58,-87.533 32.77,32.942 63.91,38.776 69.99,25.149 16.92,25.26 64.53,-39.207 89.58,50.409 67.34,33.606 416.54,-331.899 87.98,-323.989 -77.84,-100.93 320.7,-377.369 253.37,-26.358 -75.65,-454.137 454.1,-487.743 -25.22,-265.784 162.11,-348.151 182.75,-176.605 50.51,-134.539 -18.06,-196.26 84.18,-136.847 -20.19,-535.739 357.66,-125.312 125.46,-267.98 214.36,58.319 212.54,-131.792 63.76,-177.154 163.25,-38.109 -20.79,-276.437 169.95,-257.875 52.71,-633.594 -111.6,-57.659 352.63,-235.473 405.41,-111.585 124.93,-552.869 -100.93,-52.169 84.18,-399.114 433.89,-357.708 15.64,-392.855 127.82,-496.637 329.7,-637.989 147.93,-83.031 356.06,-574.069 273.25,94.342 1053.99,-539.362 23.01,-214.714 -182.36,-179.458 132.93,-137.394 67.86,-773.627 -361,-373.962 -588.7,-25.808 11.73,-282.586 -214.82,-1157.588 -908.35,-1278.169 h -571.86 l -333.6,409.769 -261.81,-73.471 -323.53,126.184 -357.5,374.839 -257.55,60.746 -225.8,416.354 -579.1,-104.778 -159.82,62.705 -366.18,-276.977 -867.82,-264.035 -954.89,-57.214 -794.46,82.483 -340.35,119.93 -521.15,28.88 -418.22,204.611 -688.18,722.997 -1715.68,-151.339 -481.05,-302.793 -356.52,-100.938 -566.91,-425.468 -622.31,-83.588 -640.64,384.842 -1131.62,319.38 -456.38,-632.494 -504.61,-605.482 -403.74,-154.199 -132.77,45.468 -1382.56,-465.558 -393.16,182.976 -1455.44,133.988 -259.53,47.439 -653.23,562.316 -22.4,794.383 -368.93,539.257 -598.22,500.706 18.44,1533.302 -173.77,283.025 -130.65,672.802 392.48,319.49 67.79,-1.533 -22.92,189.892 85.76,64.139 29.72,161.884 -45.32,149.04 214.13,397.575 -144.05,491.037 -245.6,-128.389 -167.13,389.12 192.26,227.015 -155.24,330.801 -105.35,261.167 -353.85,56.672 -99.71,137.945 49.82,209.661 -132.33,13.946 -303.95,439.53 46.62,269.738 -139.56,438.32 -307.38,56.675 -307.69,2.741 -16.89,317.95 -77.86,303.783 49.27,394.721 -151.36,494.442 134.54,218.669 -134.54,672.693 84.03,168.256 6.09,448.427 142.92,171.549 v 129.487 l -103.14,5.599 39.76,608.005 32.07,150.574 -67.35,50.409 -33.59,336.404 85.62,337.277 -136.12,520.471 84.09,1463.125"
         vector-effect="none"
         id="path433"
         style="font-style:normal;font-weight:400;font-size:33.3333px;font-family:'MS Shell Dlg 2';fill:#ead1dc;fill-opacity:1;stroke:#000000;stroke-width:295.276;stroke-linecap:square;stroke-linejoin:bevel;stroke-dasharray:none;stroke-dashoffset:0.2;stroke-opacity:1" />
      <path
         fill-rule="evenodd"
         d="m 176509.84,-15179.587 1312,4171.365 -67.34,33.71 v 201.866 l -403.74,134.535 100.94,134.546 -672.81,369.998 v 100.938 l 470.93,67.3191 -134.52,504.5553 -100.94,874.667 134.68,134.5352 67.19,370.0087 -100.93,201.8654 v 235.4736 l 235.46,100.927 -336.4,605.5849 67.34,370.0087 -100.93,67.3303 v 134.5351 l -807.33,437.339 -100.94,403.6055 h -302.81 l -235.46,336.412 v 504.6464 l 168.27,403.6169 269.06,336.412 v 370.1113 l 134.52,201.7515 h 201.88 l 302.81,134.6491 h 134.54 l 437.33,538.1634 h -67.34 l 1547.47,1446.5408 1042.8,3767.7367 638.14,-198.2312 201.86,-269.1957 504.53,-504.6578 135.68,-373.5177 -33.67,-370.12265 -302.81,-807.3363403 370.14,-437.3389897 469.72,-63.80993 236.68,-440.73398 302.81,-100.93841 134.54,-269.0703 1211.07,-471.0611 v -3969.4882 -4373.2306 -2018.404 l -7064.42,-3027.616"
         vector-effect="none"
         id="path434"
         style="font-style:normal;font-weight:400;font-size:33.3333px;font-family:'MS Shell Dlg 2';fill:#729b6f;fill-opacity:1;stroke:#000000;stroke-width:295.276;stroke-linecap:square;stroke-linejoin:bevel;stroke-dasharray:none;stroke-dashoffset:0.2;stroke-opacity:1" />
      <path
         fill-rule="evenodd"
         d="m 205009.22,129782.47 -99.93,1190.53 -121.97,1211.39 -101.01,1210.3 -120.82,1211.4 -101.01,1211.41 -120.81,1210.29 -120.83,1191.64 h 4218.51 4218.4 4218.51 l 1149.9,-1150.99 1150.97,-1149.9 1149.9,-1151 1151.05,-1149.89 1149.89,-1151 1150.97,-1149.9 1170.79,-1170.75 -1151.06,-626.03 -1149.88,-645.77 -1150.99,-626.02 -1149.9,-645.79 -1150.97,-626.01 -1149.9,-645.8 -1131.24,-626 v -19.77 l -3430.97,363.53 -5167.44,746.83 -3310.16,2987.3"
         vector-effect="none"
         id="path435"
         style="font-style:normal;font-weight:400;font-size:33.3333px;font-family:'MS Shell Dlg 2';fill:#f4cccc;fill-opacity:1;stroke:#000000;stroke-width:295.276;stroke-linecap:square;stroke-linejoin:bevel;stroke-dasharray:none;stroke-dashoffset:0;stroke-opacity:1" />
      <path
         fill-rule="evenodd"
         d="m 203616.63,124889.64 -322.93,250.41 5025.68,1655.12 3696.84,-533.77 4308.53,-5211.31 -5964.72,-1471.69 -6743.4,5311.24"
         vector-effect="none"
         id="path436"
         style="font-style:normal;font-weight:400;font-size:33.3333px;font-family:'MS Shell Dlg 2';fill:#d0e0e3;fill-opacity:1;stroke:#000000;stroke-width:295.276;stroke-linecap:square;stroke-linejoin:bevel;stroke-dasharray:none;stroke-dashoffset:0;stroke-opacity:1" />
      <path
         fill-rule="evenodd"
         d="m 217367.01,116309.94 1596.91,-7929.57 -236.14,471.16 -807.26,235.03 h -336.09 l -370.08,303.12 v 67 l -235,168.03 v 101.05 l -202.11,168.04 -67.03,202.07 -370.07,336.09 -236.16,-32.95 -168.05,370.11 h -370.06 l -706.24,538.16 -168.07,672.14 -135.05,539.26 -133.99,66.99 h -101.02 l -101.09,67 -34.05,101.03 -134,34.05 -236.07,336.08 -134.01,151.54 -841.29,151.58 h -134 l -68.11,66.98 h -101.01 l 68.11,168.06 v 168.02 l -34.05,34.06 -572.17,1412.38 5367.25,1033.49"
         vector-effect="none"
         id="path437"
         style="font-style:normal;font-weight:400;font-size:33.3333px;font-family:'MS Shell Dlg 2';fill:#fff2cc;fill-opacity:1;stroke:#000000;stroke-width:295.276;stroke-linecap:square;stroke-linejoin:bevel;stroke-dasharray:none;stroke-dashoffset:0;stroke-opacity:1" />
      <path
         fill-rule="evenodd"
         d="m 173650.35,71948.264 v 3431.131 l -19342.9,7401.276 -14128.92,4978.483 v 7784.561 3216.852 5145.433 l 10092.03,-4036.17 h 30276.08 l 3532.14,-1514.511 134.6,34.038 538.2,-235.028 168.28,32.943 168.12,135.088 336.41,-68.091 370.07,68.091 773.74,-505.204 336.4,-66.998 235.46,66.998 201.87,-32.944 168.2,66.98 134.53,269.083 874.68,605.153 h 403.65 l 134.54,-101.034 7501.53,-32.96 135.13,32.96 h 874.22 l 908.27,841.275 404.13,34.054 101.07,-34.054 470.04,66.988 606.28,34.062 301.98,34.038 1043.4,-34.038 437.11,235.028 639.21,101.035 135.06,-133.986 571.11,-34.053 437.1,202.085 4037.27,-807.238 -133.99,-168.024 -269.07,-34.054 -875.35,-807.237 -1311.32,-1312.434 -101.03,-336.079 -202.09,-235.028 -0.81,-6455.667 h 2018.63 l 2691.9,-4037.253 -4709.47,-4039.456 v -3364.023 l -12110.58,-3027.936 -2018.41,45.026 -2018.25,38.438 -2018.4,50.521 -1110.14,370.117 -470.93,-66.997 -33.76,-538.149 100.94,-67.004 571.87,-34.046 v -1211.391 l 605.61,-807.231 571.87,-100.606 -67.34,-134.542 -437.33,-403.725 -201.88,-134.541 -134.53,269.193 -470.93,235.464 -370,436.789 -168.28,-66.99 -67.18,236.123 -336.41,269.082 v 101.043 l -6391.69,840.181 -4541.49,-2690.89"
         vector-effect="none"
         id="path438"
         style="font-style:normal;font-weight:400;font-size:33.3333px;font-family:'MS Shell Dlg 2';fill:#ead1dc;fill-opacity:1;stroke:#000000;stroke-width:295.276;stroke-linecap:square;stroke-linejoin:bevel;stroke-dasharray:none;stroke-dashoffset:0.2;stroke-opacity:1" />
      <path
         fill-rule="evenodd"
         d="m 221772.22,95061.575 -184.5,101.043 -236.16,-34.039 -941.24,-67.004 -976.38,269.09 -302.04,202.085 -202.03,168.024 -202.09,16.484 -134,218.568 -68.11,875.321 -168.04,133.985 -807.18,269.075 -396.51,283.353 -63.68,28.543 -555.73,251.52 -366.86,520.578 -58.19,215.255 -180.1,215.262 -430.55,336.088 -337.16,403.051 v 101.051 l -200.96,202.085 -236.14,34.037 -563.42,194.387 -310.8,-177.912 -572.25,-151.563 -204.24,32.952 -64.82,135.095 -218.57,34.038 -185.56,-34.038 -92.33,-184.515 -277.82,-151.563 -403.04,83.472 -135.08,-16.475 h -101.08 l -99.94,-32.951 -142.76,-79.065 -59.34,210.853 67.03,134.002 101.01,202.073 168.05,109.83 269.06,529.38 370.14,437.11 h 101.02 l 68.11,169.13 -34.07,67 67.05,235.03 236.07,135.08 117.54,235.03 -66.96,151.56 218.57,353.65 200.94,571.1 169.12,68.09 h 133.99 l 67.04,66.99 -67.04,101.05 67.04,32.96 68.03,-32.96 99.95,168.04 202.09,66.99 67.05,34.05 68.01,133.98 202.1,34.05 32.99,101.04 505.21,168.04 h 168.05 l 101.01,133.98 h 200.96 l 169.19,370.14 v 438.22 l 167.97,-34.07 639.2,34.07 67.04,66.98 -67.04,168.03 83.5,202.09 v 168.03 l -50.51,269.08 34.05,67 -34.05,168.03 -32.99,68.09 235.09,235.03 336.02,538.16 101.09,236.13 572.17,67 437.11,133.99 67.04,-67 h 101.01 l 707.3,285.56 83.43,-16.48 173.52,106.53 356.98,503 193.34,264.7 585.34,-120.82 544.75,101.05 443.66,242.72 202.11,-40.64 101.08,140.59 645.76,-39.54 464.52,-60.41 463.47,99.95 202.1,-60.43 60.41,81.29 h 141.69 l 114.27,95.54 2253.64,-2253.66 117.48,67 -251.47,-403.06 184.5,-236.14 117.54,-209.77 -58.27,-462.37 v -135.09 l 159.29,-117.51 h 202.1 l 404.11,-621.63 -50.49,-68.09 50.49,-218.56 h 101.1 v -117.52 l 193.26,-59.31 83.48,-478.84 -209.79,-135.09 58.2,-49.42 -7.7,-75.77 -151.51,58.19 -126.3,-7.68 25.21,-412.95 h -151.51 v -218.56 l 151.51,-151.56 50.59,-386.59 -84.64,-168.05 -218.56,16.48 -16.44,-50.51 -34.05,-133.99 68.1,-16.48 -68.1,-185.61 269.05,-133.99 135.14,66.99 101.01,-202.08 -151.51,-386.58 285.51,-84.58 68.1,-251.5 -68.1,-50.52 -134,-639.203 16.46,-404.17 h 101.09 l 34.05,-83.465 -50.51,-50.529 101.01,-269.057 -135.05,-68.1 -50.59,-134.002 168.04,-319.587 -92.25,-66.996 -8.75,-252.591 -101.01,-235.036 -215.29,-294.336 148.26,-42.839 151.59,-394.281 h -134 l -50.59,30.747 -84.56,-39.532 -167.97,16.467 -135.13,-50.513 34.05,-168.048 -605.17,-269.081 -269.05,-66.982 -505.22,16.476 -235.01,-58.212 -34.04,-160.348 -404.21,-269.067 -470,-67.004 -445.95,-336.072 -227.32,-34.045 -303.11,168.031 -134,-133.986 h -992.82 v -774.294"
         vector-effect="none"
         id="path439"
         style="font-style:normal;font-weight:400;font-size:33.3333px;font-family:'MS Shell Dlg 2';fill:#f4cccc;fill-opacity:1;stroke:#000000;stroke-width:295.276;stroke-linecap:square;stroke-linejoin:bevel;stroke-dasharray:none;stroke-dashoffset:0.2;stroke-opacity:1" />
      <path
         fill-rule="evenodd"
         d="M 182969.47,98831.973 190165,119044.64 h 473.59 4036.82 4037.35 4036.2 v -1345.4 l -202.11,-68.09 -403.06,135.1 -202.08,-807.24 538.19,-639.21 -101.09,-572.2 -269.06,-404.16 -66.96,-403.05 -639.21,-942.34 -437.11,-269.07 -236.15,-233.94 v -5551.78 h 2018.64 l -2.29,-7433.13 h 941.25 l 3296.97,-639.205 h 437.13 l 133.99,336.085 303.11,252.6 101.08,386.58 66.96,50.53 370.15,-285.54 269.05,-303.15 572.26,-403.043 133.91,32.943 168.05,-168.032 169.13,34.046 117.53,193.292 h 151.59 l 168.06,-227.338 311.87,-190.009 159.28,-53.82 125.17,-75.782 93.38,84.567 83.42,-50.521 41.76,67.005 160.35,-83.481 16.44,-34.045 214.21,23.08 -328.39,-207.588 -231.74,-248.206 -566.68,-135.087 -257.04,87.857 -421.72,-136.175 -373.4,10.974 -1513.44,300.923 -4037.25,807.238 -437.11,-202.085 -571.11,34.053 -135.06,133.986 -639.21,-101.035 -437.12,-235.028 -1043.4,34.038 -302.05,-34.038 -606.21,-34.062 -470.02,-66.988 -101.09,34.054 -404.12,-34.054 -908.36,-841.275 h -874.21 l -135.06,-32.96 -7501.53,32.96 -134.53,101.034 h -403.66 l -874.68,-605.153 -134.53,-269.083 -168.28,-66.98 -201.79,32.944 -235.46,-66.998 -336.4,66.998 -773.74,505.204 -370.08,-68.091 -336.4,68.091 -168.12,-135.088 -168.28,-32.943 -538.26,235.028 -134.53,-34.038 -1109.39,476.654"
         vector-effect="none"
         id="path440"
         style="font-style:normal;font-weight:400;font-size:33.3333px;font-family:'MS Shell Dlg 2';fill:#fce5cd;fill-opacity:1;stroke:#000000;stroke-width:295.276;stroke-linecap:square;stroke-linejoin:bevel;stroke-dasharray:none;stroke-dashoffset:0.2;stroke-opacity:1" />
      <path
         fill-rule="evenodd"
         d="m 128584.13,-10.424647 2254.33,998.447137 1524.54,692.88631 2769.52,1305.2042 5589.47,-5974.3003 552.66,-199.6552 31.69,-510.696 6035.8,-5089.4145 h -1882.13 v -269.0817 h -9318.29 l -5281.48,7501.6601 -301.52,341.1285 -414.55,399.33327 -476.65,337.27781 -531.4,271.72481 -551.99,195.485563"
         vector-effect="none"
         id="path441"
         style="font-style:normal;font-weight:400;font-size:33.3333px;font-family:'MS Shell Dlg 2';fill:#beb297;fill-opacity:1;stroke:#000000;stroke-width:295.276;stroke-linecap:square;stroke-linejoin:bevel;stroke-dasharray:none;stroke-dashoffset:0.2;stroke-opacity:1" />
      <path
         fill-rule="evenodd"
         d="m 128584.13,-10.424647 2124.29,940.675287 1296.01,587.45926 3256.45,-4058.7834 1812.49,-913.9824 3853.31,-5601.9788 h -4784.96 l -5281.48,7501.6601 -301.52,341.1285 -414.55,399.33327 -476.65,337.27781 -531.4,271.72481 -551.99,195.485563 v 0"
         vector-effect="none"
         id="path442"
         style="font-style:normal;font-weight:400;font-size:33.3333px;font-family:'MS Shell Dlg 2';fill:#e5b636;fill-opacity:1;stroke:#000000;stroke-width:295.276;stroke-linecap:square;stroke-linejoin:bevel;stroke-dasharray:none;stroke-dashoffset:0.2;stroke-opacity:1" />
      <path
         fill-rule="evenodd"
         d="m 132169.89,-3446.1697 3094.87,903.1253 1808.61,-912.0115 3853.31,-5601.9788 h -4784.96 l -3971.83,5610.865"
         vector-effect="none"
         id="path443"
         style="font-style:normal;font-weight:400;font-size:33.3333px;font-family:'MS Shell Dlg 2';fill:#becf50;fill-opacity:1;stroke:#000000;stroke-width:295.276;stroke-linecap:square;stroke-linejoin:bevel;stroke-dasharray:none;stroke-dashoffset:0.2;stroke-opacity:1" />
      <path
         fill-rule="evenodd"
         d="m 128584.13,-10.424647 1104.88,488.742377 1680.25,751.31897 15.16,6.8128 620.01,281.2718 3256.45,-4058.7948 3.8,-1.9709 -3094.87,-903.1139 -1309.64,1890.7951 -301.52,341.1285 -414.55,399.33326 -476.72,337.27781 -531.35,271.71342 -551.98,195.485563 v 0"
         vector-effect="none"
         id="path444"
         style="font-style:normal;font-weight:400;font-size:33.3333px;font-family:'MS Shell Dlg 2';fill:#e77148;fill-opacity:1;stroke:#000000;stroke-width:295.276;stroke-linecap:square;stroke-linejoin:bevel;stroke-dasharray:none;stroke-dashoffset:0.2;stroke-opacity:1" />
      <path
         fill-rule="evenodd"
         d="m 132004.43,1517.7099 3128.09,1468.4031 5589.47,-5974.3003 552.66,-199.6552 31.69,-510.696 6035.8,-5089.4145 h -1882.13 v -269.0817 h -4533.33 l -3853.31,5601.9788 -1812.49,913.9824 -3256.45,4058.7834 v 0"
         vector-effect="none"
         id="path445"
         style="font-style:normal;font-weight:400;font-size:33.3333px;font-family:'MS Shell Dlg 2';fill:#ff9e17;fill-opacity:1;stroke:#000000;stroke-width:295.276;stroke-linecap:square;stroke-linejoin:bevel;stroke-dasharray:none;stroke-dashoffset:0.2;stroke-opacity:1" />
      <path
         fill-rule="evenodd"
         d="m 137073.37,-3455.0559 -1812.49,913.9824 -3256.45,4058.7834 3128.09,1468.4031 5589.47,-5974.3003 -3648.62,-466.8686 v 0"
         vector-effect="none"
         id="path446"
         style="font-style:normal;font-weight:400;font-size:33.3333px;font-family:'MS Shell Dlg 2';fill:#8d5a99;fill-opacity:1;stroke:#000000;stroke-width:295.276;stroke-linecap:square;stroke-linejoin:bevel;stroke-dasharray:none;stroke-dashoffset:0.2;stroke-opacity:1" />
      <path
         fill-rule="evenodd"
         d="m 146364.32,-3075.8191 6759.63,3327.66341 1856.15,-966.14913 -605.47,-336.41198 67.35,-168.2459 201.86,-100.8244 1042.8,-134.6491 1782.95,100.927 369.98,67.3188 67.19,-67.3188 -100.76,-134.5352 v -168.1433 l 100.76,-201.8654 370.16,-235.4736 -740.14,-403.7194 -369.99,-504.5553 168.12,-67.3189 v -100.927 l -403.59,-437.339 134.53,-672.8126 -235.47,-168.1433 134.53,-841.0584 -235.47,-605.4823 168.28,-168.2573 -302.8,-269.0703 168.12,-269.0704 -874.52,-571.8855 33.58,-100.927 201.89,-1513.8596 h -5674.03 l -2628.97,3298.4528 -297.17,985.5849 -480.54,380.2279 -678.96,1047.8683"
         vector-effect="none"
         id="path447"
         style="font-style:normal;font-weight:400;font-size:33.3333px;font-family:'MS Shell Dlg 2';fill:#729b6f;fill-opacity:1;stroke:#000000;stroke-width:295.276;stroke-linecap:square;stroke-linejoin:bevel;stroke-dasharray:none;stroke-dashoffset:0.2;stroke-opacity:1" />
      <path
         fill-rule="evenodd"
         d="m 84672.378,29226.987 v 7062.795 l 5046.012,11774.065 38349.71,28324.855 12110.96,-3.275 -0.81,11373.743 14128.92,-4978.484 0.82,-15510.625 -8747.12,-3733.453 -19343.06,-18163.869 -8981.58,-8005.332 -32564.159,-8140.42"
         vector-effect="none"
         id="path448"
         style="font-style:normal;font-weight:400;font-size:33.3333px;font-family:'MS Shell Dlg 2';fill:#d9d2e9;fill-opacity:1;stroke:#000000;stroke-width:295.276;stroke-linecap:square;stroke-linejoin:bevel;stroke-dasharray:none;stroke-dashoffset:0.2;stroke-opacity:1" />
      <path
         fill-rule="evenodd"
         d="m 233933.4,34742.314 -907.21,2555.245 -6054.76,10091.177 6054.76,8072.879 11947.02,2.972 314.16,-370.01 1496.97,-117.736 571.11,-756.94 673.19,-370.003 1143.35,-319.597 1985.65,84.122 6088.88,-6223.374 h -2018.63 l -6055.9,-2018.409 -706.25,-672.804 -303.12,-134.651 -419.49,-504.546 -68.12,-386.923 -302.04,-117.734 -622.67,-908.275 -235.09,-504.547 571.11,-773.736 606.29,-975.596 134,-403.616 606.22,403.616 820.43,1157.469 405.28,-1753.726 -383.33,-818.104 -1446.39,-874.555 -271.34,-301.373 -160.36,84.237 -275.61,122.687 -148.32,63.696 -8.75,-5.708 -12.05,-13.398 -18.74,-9.011 -21.94,6.266 -8.75,31.306 -36.27,48.208 -102.15,125.533 -5.33,24.713 25.29,96.978 8.76,29.102 -6.86,21.856 -86.77,37.67 -42.8,57.661 -83.5,10.217 -30.78,48.652 -125.15,-99.171 -99.94,-112.686 -137.28,-84.017 -126.31,-37.673 -26.42,8.459 -77.94,102.36 -120.82,-51.949 -263.57,-521.129 -364.66,-121.251 -276.75,-387.258 -131.79,-384.614 -180.09,-115.976 -1053.31,-705.965 -576.51,-954.187 -358.11,-185.608 -854.41,-370.009 -359.17,-240.521 -320.72,126.743 -495.3,-178.362 -337.17,-100.927 -653.46,223.716 -363.52,-444.471 -363.52,323.436 -909.4,192.307 -399.78,-548.371 -344.86,-20.097 -302.04,-407.786 -724.83,1600.842 -556.78,-704.872 -335.04,62.819 -48.29,234.38 -160.35,63.913 -334.97,-140.141 -630.44,113.892 -196.54,22.295"
         vector-effect="none"
         id="path449"
         style="font-style:normal;font-weight:400;font-size:33.3333px;font-family:'MS Shell Dlg 2';fill:#7d8b8f;fill-opacity:1;stroke:#000000;stroke-width:295.276;stroke-linecap:square;stroke-linejoin:bevel;stroke-dasharray:none;stroke-dashoffset:0.2;stroke-opacity:1" />
      <path
         fill-rule="evenodd"
         d="m 249658.54,39797.564 -405.28,1753.725 -820.43,-1157.471 -606.22,-403.616 -134,403.616 -606.29,975.598 -571.11,773.735 235.09,504.548 622.67,908.273 302.04,117.738 68.12,386.922 419.49,504.546 303.12,134.648 706.25,672.803 6055.9,2018.413 h 2018.63 l -6088.88,6223.377 -1985.65,-84.124 -1143.35,319.596 -673.19,370.003 -571.11,756.942 -1496.97,117.726 -314.16,370.018 -39.45,50.51 -1143.35,1631.494 -673.26,672.8 v 7400.848 l 1143.36,1513.75 v 168.254 l 204.21,173.423 673.27,504.539 4034,-5.098 32294.79,-25633.754 -0.8,-2625.319 h -16988.19 l -1648.47,-370.009 -13170.53,851.603"
         vector-effect="none"
         id="path451"
         style="font-style:normal;font-weight:400;font-size:33.3333px;font-family:'MS Shell Dlg 2';fill:#beb297;fill-opacity:1;stroke:#000000;stroke-width:295.276;stroke-linecap:square;stroke-linejoin:bevel;stroke-dasharray:none;stroke-dashoffset:0.2;stroke-opacity:1" />
      <path
         fill-rule="evenodd"
         d="m 210822.35,4499.8587 12312.77,6896.2913 442.67,-364.517 148.24,-110.372 424.99,-330.248 281.17,-223.181 374.56,-14.047 557.95,-6.71 1113.63,-28.562 692.99,-19.105 -685.3,-1789.6403 693,-1513.7456 -2574.37,-3096.0406 -757.81,-913.8799 -452.49,-1.6519 h -1210.32 l -11798.79,1.6519 101.09,134.5466 v 168.2572 l 167.98,437.2137 -66.96,134.6491 235,639.0905"
         vector-effect="none"
         id="path452"
         style="font-style:normal;font-weight:400;font-size:33.3333px;font-family:'MS Shell Dlg 2';fill:#becf50;fill-opacity:1;stroke:#000000;stroke-width:295.276;stroke-linecap:square;stroke-linejoin:bevel;stroke-dasharray:none;stroke-dashoffset:0.2;stroke-opacity:1" />
      <path
         fill-rule="evenodd"
         d="m 225958.8,19131.096 11103.6,2.199 -1167.52,-2180.964 -2804.93,-5080.175 -1682.62,-2833.6693 -1234.46,1260.9443 h -3001.55 l -692.99,19.105 -1113.63,28.55 -557.95,6.699 -374.56,14.07 -281.17,223.169 -424.99,330.249 -148.24,110.371 -442.67,364.518 2823.68,7734.934"
         vector-effect="none"
         id="path453"
         style="font-style:normal;font-weight:400;font-size:33.3333px;font-family:'MS Shell Dlg 2';fill:#e77148;fill-opacity:1;stroke:#000000;stroke-width:295.276;stroke-linecap:square;stroke-linejoin:bevel;stroke-dasharray:none;stroke-dashoffset:0.2;stroke-opacity:1" />
      <path
         fill-rule="evenodd"
         d="m 244973.21,55464.58 -11947.02,-2.973 -3884.61,9.232 117.55,100.921 -34.06,100.936 -66.96,50.414 269.06,-8.455 16.45,92.579 -117.47,16.804 -25.28,42.066 75.79,8.348 -50.51,67.327 167.99,-42.075 117.53,193.418 34.06,-92.482 117.53,8.349 34.06,67.328 117.48,50.406 -16.47,319.597 -101.01,67.218 34.05,100.936 -34.05,50.522 66.95,218.552 50.53,235.472 67.02,67.328 118.62,33.602 32.9,100.928 56.06,302.685 129.58,134.547 101.02,-16.808 134,134.539 8.75,235.472 176.89,252.271 50.51,-50.408 16.45,134.537 h 55.99 l 45.01,151.342 -66.95,67.326 125.23,824.039 109.78,176.601 -66.96,479.395 -101.1,201.758 -151.5,67.317 -79.08,218.668 -139.48,33.611 66.96,117.739 50.58,134.54 -50.58,142.992 -252.6,42.066 -66.97,67.212 -133.99,50.52 -6.86,67.213 -5.33,25.259 -114.27,-8.455 -109.78,420.531 -83.48,151.344 -210.87,134.535 v 100.929 l -58.19,50.414 -17.6,50.521 -285.52,151.343 -16.52,201.749 -68.04,67.326 33.99,168.147 -420.66,504.549 135.15,521.458 -118.62,723.114 17.59,1009.196 h 226.19 v 75.671 l 143.9,-42.062 6795.05,3834.636 420.64,277.415 83.43,496.206 -218.56,218.655 -41.75,84.028 84.63,16.912 -50.58,84.027 v 33.602 l 159.29,-33.602 135.06,92.472 126.3,285.986 2867.64,2043.446 h 1547.48 8073.39 l -2.28,-5454.36 -4034.01,5.106 -673.17,-504.554 -204.31,-173.408 v -168.261 l -1143.35,-1513.751 v -7400.843 l 673.25,-672.804 1143.37,-1631.492 39.52,-50.52"
         vector-effect="none"
         id="path454"
         style="font-style:normal;font-weight:400;font-size:33.3333px;font-family:'MS Shell Dlg 2';fill:#d9ead3;fill-opacity:1;stroke:#000000;stroke-width:295.276;stroke-linecap:square;stroke-linejoin:bevel;stroke-dasharray:none;stroke-dashoffset:0.2;stroke-opacity:1" />
      <path
         fill-rule="evenodd"
         d="m 210823.49,19133.181 v 4036.602 l -2019.77,0.308 v 1009.201 l 0.81,7668.927 -739.07,-134.536 -539.26,168.144 -471.17,-49.421 -454.7,353.204 152.66,234.369 25.22,412.081 -656.74,732.875 109.85,335.193 -640.34,177.815 50.58,563.41 295.41,335.09 -680.96,403.72 -304.17,337.722 387.67,873.128 -269.06,304.228 -404.19,260.731 -252.61,546.606 218.55,336.4 472.3,-68.754 66.97,-151.453 521.66,243.927 -152.66,363.205 219.7,553.419 -34.05,304.335 337.16,-102.471 -197.7,853.801 516.2,484.998 292.14,-29.762 84.56,440.078 -225.19,573.628 252.61,370.118 640.34,569.897 756.69,1185.698 -114.19,1188.555 -325.14,280.72 -58.2,273.69 126.3,84.018 163.63,-86.216 -147.1,540.353 1536.43,62.821 -256.95,661.052 138.34,164.851 1290.46,238.216 218.56,353.314 640.34,485.329 -270.21,422.947 370.16,403.615 1380.5,737.602 99.93,305.205 606.31,401.203 -270.2,372.535 472.22,502.017 -136.13,204.502 640.28,266.438 908.27,554.964 133.98,322.345 -101.01,235.464 572.17,807.35 606.22,482.134 67.05,389.569 471.15,67.318 v 168.146 l 370.08,235.475 h 269.13 l 50.5,151.339 134,-16.803 707.24,-554.961 41.74,151.34 445.95,-8.456 370.07,311.148 428.34,-336.299 142.76,-403.722 639.22,269.19 -32.93,311.141 722.65,714.752 84.54,117.735 1110.38,9.223 h 6711.56 l 3884.61,-9.223 -6054.76,-8072.87 6054.76,-10091.171 907.2,-2555.257 4138.26,-11572.201 -1009.27,-4036.818 -11103.58,-2.199 -15135.39,2.085"
         vector-effect="none"
         id="path455"
         style="font-style:normal;font-weight:400;font-size:33.3333px;font-family:'MS Shell Dlg 2';fill:#729b6f;fill-opacity:1;stroke:#000000;stroke-width:295.276;stroke-linecap:square;stroke-linejoin:bevel;stroke-dasharray:none;stroke-dashoffset:0.2;stroke-opacity:1" />
      <path
         fill-rule="evenodd"
         d="m 221319.72,55461.615 1110.3,9.224 h 6711.56 l 3884.61,-9.224 -6054.76,-8072.879 3137.76,-5229.112 -4810.48,-463.471 -667.69,856.543 -102.15,-42.39 -573.32,1.865 -353.62,103.128 -421.8,233.932 -294.27,325.091 -134,202.63 -108.7,213.725 -14794.93,-485.107 335.02,524.098 -114.26,1188.554 -325.05,280.72 -58.21,273.687 126.31,84.02 163.62,-86.215 -147.17,540.352 1536.5,62.82 -257.02,661.054 138.34,164.851 1290.52,238.215 218.56,353.316 640.27,485.327 -270.13,422.944 370.09,403.62 1380.56,737.601 99.96,305.204 606.21,401.206 -270.2,372.533 472.3,502.025 -136.21,204.499 640.28,266.439 908.26,554.962 134,322.339 -101.02,235.467 572.18,807.346 606.29,482.144 66.97,389.56 471.15,67.325 v 168.139 l 370.16,235.475 h 269.05 l 50.51,151.343 134,-16.8 707.3,-554.961 41.75,151.343 445.88,-8.456 370.14,311.138 428.26,-336.292 142.85,-403.729 639.13,269.19 -32.92,311.14 722.7,714.762 84.56,117.732"
         vector-effect="none"
         id="path456"
         style="font-style:normal;font-weight:400;font-size:33.3333px;font-family:'MS Shell Dlg 2';fill:#ff9e17;fill-opacity:1;stroke:#000000;stroke-width:295.276;stroke-linecap:square;stroke-linejoin:bevel;stroke-dasharray:none;stroke-dashoffset:0.2;stroke-opacity:1" />
      <path
         fill-rule="evenodd"
         d="m 219366.98,70472.84 269.07,1311.888 95.52,734.421 -127.37,847.103 504.07,1479.379 68.1,1412.376 941.26,1144.41 -437.11,2522.74 1781.41,202.086 519.45,739.131 735.89,57.102 383.23,210.878 8.85,243.813 173.54,126.303 527.13,60.4 40.62,209.784 634.79,203.171 389.95,-6.549 181.23,228.439 438.17,119.707 383.33,204.29 88.98,-71.39 273.41,235.028 386.59,14.28 264.71,256.991 154.87,-2.133 39.55,-51.615 72.44,-20.884 119.75,41.737 233.95,-38.439 352.54,259.195 13.1,-278.953 47.23,-109.836 132.93,-54.906 553.51,508.496 394.3,475.551 68.09,168.032 66.97,477.755 -45.01,452.487 208.72,466.774 -24.23,377.8 -75.72,177.926 618.34,702.889 117.47,381.114 739.15,-37.351 452.49,109.835 640.27,-395.377 589.78,352.546 32.98,269.082 572.17,-67.013 370.14,101.05 319.57,-285.557 487.61,-17.562 151.6,202.069 689.71,67.013 639.2,-302.034 235.03,-606.255 h 673.25 l 420.66,303.136 958.77,-504.11 h 706.25 l 605.08,-420.646 269.13,-34.045 673.25,-319.596 453.57,-386.607 151.51,-50.514 337.16,-303.127 2017.58,1177.362 5047.7,-1412.376 V 80698.43 73029.499 h -8073.48 -1547.48 l -2867.56,-2043.455 -126.3,-285.985 -135.07,-92.48 -159.28,33.61 v -33.61 l 50.5,-84.011 -84.55,-16.912 41.74,-84.028 218.57,-218.664 -83.5,-496.205 -420.66,-277.415 -6794.98,-3834.628 -143.9,42.061 v -75.67 h -226.25 -505.21 -3364 -2018.65 -336.01 l -750.12,117.732 h -203.25 l -72.44,151.341 -176.82,235.473 -138.4,75.671 -2.29,99.719 -276.75,186.156 -235.01,116.646 -61.56,-114.989 -15.38,-133.344 -45.03,-15.699 -60.39,-90.275 -82.36,111.587 -101.02,-67.329 -133.98,100.932 h -236.15 l -184.51,235.472 h -176.81 l -250.46,350.35 -9.83,53.265 -240.58,347.599 88.97,459.742 -168.05,353.102 -185.57,16.8 -117.53,168.253 h -134 l -34.05,336.404 75.8,246.668 188.91,94.129 109.78,72.809 -108.71,95.223 540.33,533.762 -34.06,773.621"
         vector-effect="none"
         id="path457"
         style="font-style:normal;font-weight:400;font-size:33.3333px;font-family:'MS Shell Dlg 2';fill:#c9daf8;fill-opacity:1;stroke:#000000;stroke-width:295.276;stroke-linecap:square;stroke-linejoin:bevel;stroke-dasharray:none;stroke-dashoffset:0.2;stroke-opacity:1" />
      <path
         fill-rule="evenodd"
         d="m 219731.57,72519.149 510.7,-11.203 175.74,50.41 109.84,-218.664 83.5,33.713 387.67,-218.664 66.94,-185.062 285.6,-269.066 50.51,-218.672 218.56,-327.944 118.6,33.704 -17.59,-176.594 98.88,-285.993 462.4,-299.933 -98.89,-128.944 412.97,-193.403 32.97,-201.751 -117.54,-201.871 117.54,-156.94 -336.09,22.407 -227.39,-176.602 -142.76,120.475 -184.5,-196.154 50.51,-100.924 16.53,-134.541 164.7,-128.935 v -67.331 l -131.79,95.327 -66.96,-50.402 210.86,-437.328 69.17,-70.081 -195.48,-109.272 -35.18,-80.175 -132.86,-18.014 -42.82,75.671 -159.28,42.062 -123.03,-42.062 -79.07,143.001 -101.02,33.609 -55.98,-16.808 -32.98,-25.15 -49.45,-50.521 -29.63,-50.411 -50.5,-39.326 -59.35,-5.629 -74.65,-44.813 -31.85,89.721 57.15,210.22 -109.86,159.794 34.04,218.679 -135.13,215.801 -212.99,2.743 -30.77,84.131 -92.26,22.398 -84.55,-56.007 -193.35,42.062 -59.25,41.949 -180.17,-75.67 -155.93,75.67 -32.91,-168.134 -42.89,-181.653 -92.26,-48.222 -271.26,-85.78 -143.91,2.822 -55.98,43.712 -27.42,245.573 -108.79,95.224 540.41,533.762 -34.06,773.621 269.07,1311.895 95.52,734.414"
         vector-effect="none"
         id="path458"
         style="font-style:normal;font-weight:400;font-size:33.3333px;font-family:'MS Shell Dlg 2';fill:#b7b7b7;fill-opacity:1;stroke:#000000;stroke-width:295.276;stroke-linecap:square;stroke-linejoin:bevel;stroke-dasharray:none;stroke-dashoffset:0.2;stroke-opacity:1" />
      <path
         fill-rule="evenodd"
         d="m 219145.08,67322.327 88.96,459.733 -168.03,353.102 -185.57,16.809 -117.55,168.254 h -134 l -34.05,336.396 75.79,246.676 188.94,94.119 109.85,72.809 27.42,-245.565 55.98,-43.719 143.91,-2.814 271.26,85.772 92.26,48.221 42.89,181.654 32.91,168.142 155.93,-75.671 180.17,75.671 59.25,-41.951 193.35,-42.061 84.55,56.008 92.26,-22.406 30.77,-84.131 212.99,-2.735 135.13,-215.81 -34.04,-218.672 109.86,-159.802 -57.15,-210.203 31.85,-89.728 74.65,44.805 59.35,5.637 50.5,39.318 29.63,50.402 49.45,50.529 32.98,25.149 55.98,16.801 101.02,-33.609 79.07,-142.993 123.03,42.069 159.28,-42.069 42.82,-75.671 132.86,18.014 35.18,80.166 195.48,109.289 124.09,-43.711 52.71,48.754 116.4,-142.438 125.24,86.984 159.28,-131.797 -11.04,-252.82 106.57,-257.324 -146.1,-224.27 -16.46,-128.942 19.81,-313.888 -20.87,-14.057 26.35,-182.2 -171.31,-241.077 -19.81,-162.545 -128.52,-103.787 -114.19,-43.702 -19.8,-43.171 -87.84,-25.253 -55.99,-187.806 -50.58,-106.536 -16.46,-50.411 h -75.78 v -218.442 h -203.18 l -72.44,151.341 -176.88,235.466 -138.34,75.679 -2.29,99.718 -276.75,186.156 -235.01,116.638 -61.56,-114.989 -15.38,-133.336 -45.03,-15.707 -60.39,-90.275 -82.36,111.588 -101.08,-67.33 -133.92,100.932 h -236.15 l -184.51,235.464 h -176.81 l -250.46,350.358 -9.83,53.265 -240.58,347.607"
         vector-effect="none"
         id="path459"
         style="font-style:normal;font-weight:400;font-size:33.3333px;font-family:'MS Shell Dlg 2';fill:#e6b8af;fill-opacity:1;stroke:#000000;stroke-width:295.276;stroke-linecap:square;stroke-linejoin:bevel;stroke-dasharray:none;stroke-dashoffset:0.2;stroke-opacity:1" />
      <path
         fill-rule="evenodd"
         d="m 249171.99,67575.044 2.27,5454.36 v 7668.93 3633.106 l 2016.43,-609.553 h 30276.16 V 41941.288 l -32294.78,25633.756"
         vector-effect="none"
         id="path460"
         style="font-style:normal;font-weight:400;font-size:33.3333px;font-family:'MS Shell Dlg 2';fill:#d9d2e9;fill-opacity:1;stroke:#000000;stroke-width:295.276;stroke-linecap:square;stroke-linejoin:bevel;stroke-dasharray:none;stroke-dashoffset:0.2;stroke-opacity:1" />
      <path
         fill-rule="evenodd"
         d="m 211831.72,87762.444 h 5045.46 l 3803.34,-7837.287 437.11,-2522.74 -941.26,-1144.41 -68.1,-1412.376 -504.07,-1479.379 127.37,-847.103 -95.52,-734.421 -269.07,-1311.888 34.06,-773.628 -540.41,-533.764 108.79,-95.223 -109.85,-72.809 -188.94,-94.119 -75.79,-246.676 34.05,-336.396 h 134 l 117.55,-168.254 185.57,-16.809 168.03,-353.102 -88.96,-459.733 240.56,-347.6 9.92,-53.264 250.38,-350.359 h 176.8 l 184.52,-235.464 h 101.09 v -332.994 l -46.17,-44.377 21.93,-598.128 h 92.34 l -12.12,-403.608 83.49,-227.123 12.04,-219.766 -50.51,-24.048 177.97,-900.919 24.14,-40.968 2522.69,-3531.838 -504.07,-4541.039 -1110.36,-9.225 -84.56,-117.74 -722.7,-714.754 33,-311.14 -639.21,-269.19 -142.76,403.729 -428.35,336.292 -370.14,-311.138 -445.88,8.456 -41.75,-151.343 -707.3,554.961 -134,16.806 -50.51,-151.342 h -269.05 l -370.16,-235.474 v -168.147 l -471.15,-67.325 -66.97,-389.56 -606.29,-482.144 -606.22,-370.01 h -336.09 l -167.99,235.472 h -1009.36 l -505.2,-336.401 -571.1,100.929 -639.21,-336.404 -404.11,67.215 -67.04,605.597 -1177.34,235.467 -619.41,-363.856 -423.92,279.732 -1735.33,714.312 -880.77,-428.875 -397.57,385.164 -585.42,1008.655 -315.23,25.708 -553.5,-234.922 -236.16,-6.704 -373.34,-135.642 -136.2,1.065 -190,109.285 -606.29,-173.745 -70.24,99.174 -489.88,-327.396 -851.16,91.924 -395.35,-673.352 -1237.82,-779.884 -230.59,-28.012 -403.06,2.21 -678.73,473.245 -489.83,624.592 -143.9,346.51 -235,134.536 -153.82,-12.85 -94.38,95.877 211.93,431.073 2.28,192.314 -131.79,477.198 102.17,590.326 16.45,562.975 -241.63,318.94 -821.51,1545.824 -97.73,1507.603 -474.43,1052.364 118.61,426.132 83.4,885.87 -302.5,370.01 -134.61,672.803 67.35,672.798 -1110.15,1009.212 -2085.74,2522.954 168.28,1951.206 -672.79,1513.75 -841.1,235.472 -1345.6,1513.743 -840.92,66.997 v -1076.09 l -840.92,336.404 -336.41,-168.262 -740.15,941.993 -605.46,-605.581 -168.27,67.315 67.34,134.541 -571.87,100.605 -605.61,807.231 v 1211.407 l -571.86,34.038 -100.94,67.006 33.67,538.147 471.01,66.989 1110.14,-370.116 2018.41,-50.522 2018.25,-38.438 2018.41,-45.026 12110.58,3027.945 v 3364.022 l 4709.39,4039.464 2354.72,2018.622"
         vector-effect="none"
         id="path461"
         style="font-style:normal;font-weight:400;font-size:33.3333px;font-family:'MS Shell Dlg 2';fill:#d0e0e3;fill-opacity:1;stroke:#000000;stroke-width:295.276;stroke-linecap:square;stroke-linejoin:bevel;stroke-dasharray:none;stroke-dashoffset:0.2;stroke-opacity:1" />
      <path
         fill-rule="evenodd"
         d="m 190638.59,125099.42 1796.44,20.87 h 3007.42 3027.61 3007.11 l 1816.53,19.76 8729.07,-6890.57 -21.94,-2930.2"
         vector-effect="none"
         id="path462"
         style="font-style:normal;font-weight:400;font-size:33.3333px;font-family:'MS Shell Dlg 2';fill:none;fill-opacity:1;stroke:#000000;stroke-width:295.276;stroke-linecap:square;stroke-linejoin:bevel;stroke-dasharray:none;stroke-dashoffset:0;stroke-opacity:1" />
      <path
         fill-rule="evenodd"
         d="m 203616.63,124889.64 -322.93,250.41 5025.68,1655.12"
         vector-effect="none"
         id="path463"
         style="font-style:normal;font-weight:400;font-size:33.3333px;font-family:'MS Shell Dlg 2';fill:#d0e0e3;fill-opacity:1;stroke:#000000;stroke-width:295.276;stroke-linecap:square;stroke-linejoin:bevel;stroke-dasharray:none;stroke-dashoffset:0;stroke-opacity:1" />
      <path
         fill-rule="evenodd"
         d="m 205009.22,129782.47 -99.93,1190.53 -121.97,1211.39 -101.01,1210.3 -120.82,1211.4 -101.01,1211.41 -120.81,1210.29 -120.83,1191.64 m 4096.54,-11424.26 -3310.16,2987.3"
         vector-effect="none"
         id="path464"
         style="font-style:normal;font-weight:400;font-size:33.3333px;font-family:'MS Shell Dlg 2';fill:#f4cccc;fill-opacity:1;stroke:#000000;stroke-width:295.276;stroke-linecap:square;stroke-linejoin:bevel;stroke-dasharray:none;stroke-dashoffset:0;stroke-opacity:1" />
      <path
         fill-rule="evenodd"
         d="m 208319.38,126795.17 3696.84,-533.77"
         vector-effect="none"
         id="path465"
         style="font-style:normal;font-weight:400;font-size:33.3333px;font-family:'MS Shell Dlg 2';fill:#d0e0e3;fill-opacity:1;stroke:#000000;stroke-width:295.276;stroke-linecap:square;stroke-linejoin:bevel;stroke-dasharray:none;stroke-dashoffset:0;stroke-opacity:1" />
      <path
         fill-rule="evenodd"
         d="m 210360.03,119577.3 5529.82,1366.26"
         vector-effect="none"
         id="path466"
         style="font-style:normal;font-weight:400;font-size:33.3333px;font-family:'MS Shell Dlg 2';fill:#fce5cd;fill-opacity:1;stroke:#000000;stroke-width:295.276;stroke-linecap:square;stroke-linejoin:bevel;stroke-dasharray:none;stroke-dashoffset:0;stroke-opacity:1" />
      <path
         fill-rule="evenodd"
         d="m 217367.01,116309.94 -1477.16,4633.62 1477.16,-4633.62"
         vector-effect="none"
         id="path467"
         style="font-style:normal;font-weight:400;font-size:33.3333px;font-family:'MS Shell Dlg 2';fill:#c9daf8;fill-opacity:1;stroke:#000000;stroke-width:295.276;stroke-linecap:square;stroke-linejoin:bevel;stroke-dasharray:none;stroke-dashoffset:0;stroke-opacity:1" />
      <path
         fill-rule="evenodd"
         d="m 217367.01,116309.94 -1477.16,4633.62 434.9,106.53 1214.64,-117.53 5758.29,-2258.05"
         vector-effect="none"
         id="path468"
         style="font-style:normal;font-weight:400;font-size:33.3333px;font-family:'MS Shell Dlg 2';fill:none;fill-opacity:1;stroke:#000000;stroke-width:295.276;stroke-linecap:square;stroke-linejoin:bevel;stroke-dasharray:none;stroke-dashoffset:0;stroke-opacity:1" />
      <path
         fill-rule="evenodd"
         d="m 217367.01,116309.94 -5367.25,-1033.49 5367.25,1033.49"
         vector-effect="none"
         id="path469"
         style="font-style:normal;font-weight:400;font-size:33.3333px;font-family:'MS Shell Dlg 2';fill:none;fill-opacity:1;stroke:#000000;stroke-width:295.276;stroke-linecap:square;stroke-linejoin:bevel;stroke-dasharray:none;stroke-dashoffset:0;stroke-opacity:1" />
      <path
         fill-rule="evenodd"
         d="m 216324.75,121050.09 -4308.53,5211.31 1470.6,-213.06 3430.97,-363.53 v 19.77 l 1131.24,626 1149.9,645.8 1150.97,626.01 1149.9,645.79 1150.99,626.02 1149.88,645.77 1151.06,626.03 2018.63,-3471.65 2017.49,-3471.67 2018.63,-3485.91 -4249.19,-1983.49 -56.07,34.07 h -976.37 l -319.56,-67.02 -83.49,56.03 -101.02,-52.72 v -56.02 l -42.8,-4.41 -29.72,-3.36 -27.41,5.48 -30.8,7.69 -14.24,7.69 -17.59,4.42 -15.39,-3.27 -17.52,-14.29 -24.22,-3.34 -24.14,9.9 -71.39,993.93 -1607.88,26.36 -5759.35,2258.05 -1213.58,117.53"
         vector-effect="none"
         id="path470"
         style="font-style:normal;font-weight:400;font-size:33.3333px;font-family:'MS Shell Dlg 2';fill:#d9ead3;fill-opacity:1;stroke:#000000;stroke-width:295.276;stroke-linecap:square;stroke-linejoin:bevel;stroke-dasharray:none;stroke-dashoffset:0;stroke-opacity:1" />
      <path
         fill-rule="evenodd"
         d="m 212016.22,126261.4 1470.6,-213.06 3430.97,-363.53 v 19.77 l 1131.24,626 1149.9,645.8 1150.97,626.01 1149.9,645.79 1150.99,626.02 1149.88,645.77 1151.06,626.03"
         vector-effect="none"
         id="path471"
         style="font-style:normal;font-weight:400;font-size:33.3333px;font-family:'MS Shell Dlg 2';fill:none;fill-opacity:1;stroke:#000000;stroke-width:295.276;stroke-linecap:square;stroke-linejoin:bevel;stroke-dasharray:none;stroke-dashoffset:0;stroke-opacity:1" />
      <path
         fill-rule="evenodd"
         d="m 216324.75,121050.09 -4308.53,5211.31"
         vector-effect="none"
         id="path472"
         style="font-style:normal;font-weight:400;font-size:33.3333px;font-family:'MS Shell Dlg 2';fill:#d9ead3;fill-opacity:1;stroke:#000000;stroke-width:295.276;stroke-linecap:square;stroke-linejoin:bevel;stroke-dasharray:none;stroke-dashoffset:0;stroke-opacity:1" />
      <path
         fill-rule="evenodd"
         d="m 217367.01,116309.94 -1477.16,4633.62 434.9,106.53 1214.64,-117.53 5758.29,-2258.05"
         vector-effect="none"
         id="path473"
         style="font-style:normal;font-weight:400;font-size:33.3333px;font-family:'MS Shell Dlg 2';fill:none;fill-opacity:1;stroke:#000000;stroke-width:295.276;stroke-linecap:square;stroke-linejoin:bevel;stroke-dasharray:none;stroke-dashoffset:0;stroke-opacity:1" />
      <path
         fill-rule="evenodd"
         d="m 217367.01,116309.94 -1477.16,4633.62 434.9,106.53 1214.64,-117.53 5758.29,-2258.05 -752.33,-985.16 -14.24,-813.82 -5164.1,-565.59"
         vector-effect="none"
         id="path474"
         style="font-style:normal;font-weight:400;font-size:33.3333px;font-family:'MS Shell Dlg 2';fill:#c9daf8;fill-opacity:1;stroke:#000000;stroke-width:295.276;stroke-linecap:square;stroke-linejoin:bevel;stroke-dasharray:none;stroke-dashoffset:0;stroke-opacity:1" />
    </g>
    <path
       d="m 237062.39,19133.294 h -0.26 v -0.03 l -5654.8,-10094.7794 -1242.26,-2217.3748 766.64,-2533.7259 -119.73,-263.1351 -83.5,-236.4628 24.22,-76.6603 -86.75,-285.9929 -157.09,-428.5407 4.56,-31.6407 -15.38,-19.22 h -0.14 l -269.07,-699.3785 -140.62,-94.4521 -3.05,-51.178 30.78,-103.9003 -76.86,-99.2739 3.03,-91.8275 -61.55,-208.8809 -151.51,-295.4473 -398.72,-1000.74618 -441.45,-1002.8336 -4719.28,-1980.63662 -3355.25,-1395.4673 -2533.76,-446.8879 -2263.53,-408.5578 -921.45,-153.7539 h -3133.43 -230.57 -2690.28 v 0.018 l -1177.2,-672.8412 -24389.87,-0.023 v -4373.2304 -2018.405 l -7064.42,-3027.617 h -0.27 -6054.96 -672.79 l -1850.21,1345.601 -4541.49,1787.888 -6055.21,2417.1904 -1210.92,840.956 v 0 h -5674.03 -3107.82 -1882.13 v -269.0801 h -4533.33 -4784.96 l -3953.97,5616.1099 -1327.51,1885.5499 -301.52,341.126 -414.55,399.33533 -476.65,337.2747 -531.4,271.72894 -551.99,195.483709 6548.39,2996.537921 -1345.6,4709.6326 h 9082.82 v 672.7855 l 0.15,0.098 0.82,2693.8762 h -6728.17 v 4036.603 1006.557 103.461 l -1513.89,117.743 -218.63,117.731 -286.04,336.396 -168.12,336.285 -126.16,504.67 42.06,504.548 117.68,1009.096 100.94,1009.09 33.6,336.414 -2018.71,-2.216 h -2186.54 l -3700.26,2.216 -302.72,1110.012 -3902.28,3599.273 -2018.84,-2018.302 -10092.19,-8075.617 -25230.063,14130.595 v 7062.725 l 5046.011,11774.06 38349.712,28324.855 12110.96,-3.271 -0.53,27520.571 10092.03,-4036.17 h 30276.08 l 2422.68,-1037.857 7195.68,20212.667 h 473.59 v 19174.79 h 26239.67 v 0 l 8073.47,-8073.43 6054.75,-10429.23 10091.78,4373.34 h 34313.68 v 30276.17 h 36330.99 l -0.25,-78717.809 h -30276.08 -0.1 0.1 V 41941.289 l -0.1,0.06 -0.52,-2625.322 h -16988.19 l -1648.47,-370.009 -13170.67,851.576 -383.33,-818.098 -1446.39,-874.556 -271.31,-301.331 -1412.41,-3532.242 -505.21,-1749.345 -2522.7,-1278.272 -5046.01,-8073.625 z"
       style="font-size:33.3333px;font-family:'MS Shell Dlg 2';fill:none;fill-opacity:1;fill-rule:evenodd;stroke:#000000;stroke-width:590.552;stroke-linecap:square;stroke-linejoin:bevel;stroke-dasharray:none;stroke-dashoffset:0.2;stroke-opacity:1"
       id="path1" />
  </g>
</svg>
